<svg width="16" height="16" viewBox="0 0 16 16" fill="none" xmlns="http://www.w3.org/2000/svg">
<path d="M6.74375 2.23775C7.06325 0.92075 8.93675 0.92075 9.25625 2.23775C9.30419 2.4356 9.39817 2.61933 9.53053 2.774C9.6629 2.92867 9.82992 3.04989 10.018 3.12781C10.2061 3.20573 10.4099 3.23814 10.6128 3.2224C10.8158 3.20667 11.0122 3.14323 11.186 3.03725C12.3432 2.33225 13.6685 3.65675 12.9635 4.81475C12.8577 4.98849 12.7943 5.18475 12.7786 5.38758C12.7629 5.59041 12.7953 5.79408 12.8731 5.98203C12.951 6.16999 13.0721 6.33693 13.2265 6.46929C13.381 6.60164 13.5646 6.69568 13.7623 6.74375C15.0793 7.06325 15.0793 8.93675 13.7623 9.25625C13.5644 9.30419 13.3807 9.39817 13.226 9.53053C13.0713 9.6629 12.9501 9.82992 12.8722 10.018C12.7943 10.2061 12.7619 10.4099 12.7776 10.6128C12.7933 10.8158 12.8568 11.0122 12.9628 11.186C13.6678 12.3432 12.3432 13.6685 11.1852 12.9635C11.0115 12.8577 10.8152 12.7943 10.6124 12.7786C10.4096 12.7629 10.2059 12.7953 10.018 12.8731C9.83001 12.951 9.66307 13.0721 9.53071 13.2265C9.39836 13.381 9.30432 13.5646 9.25625 13.7623C8.93675 15.0793 7.06325 15.0793 6.74375 13.7623C6.69581 13.5644 6.60183 13.3807 6.46947 13.226C6.3371 13.0713 6.17008 12.9501 5.98201 12.8722C5.79394 12.7943 5.59013 12.7619 5.38716 12.7776C5.1842 12.7933 4.98781 12.8568 4.814 12.9628C3.65675 13.6678 2.3315 12.3432 3.0365 11.1852C3.14233 11.0115 3.20566 10.8152 3.22136 10.6124C3.23706 10.4096 3.20468 10.2059 3.12685 10.018C3.04903 9.83001 2.92795 9.66307 2.77345 9.53071C2.61896 9.39836 2.43542 9.30432 2.23775 9.25625C0.92075 8.93675 0.92075 7.06325 2.23775 6.74375C2.4356 6.69581 2.61933 6.60183 2.774 6.46947C2.92867 6.3371 3.04989 6.17008 3.12781 5.98201C3.20573 5.79394 3.23814 5.59013 3.2224 5.38716C3.20667 5.1842 3.14323 4.98781 3.03725 4.814C2.33225 3.65675 3.65675 2.3315 4.81475 3.0365C5.56475 3.4925 6.53675 3.089 6.74375 2.23775Z" stroke="#08135E" stroke-linecap="round" stroke-linejoin="round"/>
<path d="M5.75 8C5.75 8.59674 5.98705 9.16903 6.40901 9.59099C6.83097 10.0129 7.40326 10.25 8 10.25C8.59674 10.25 9.16903 10.0129 9.59099 9.59099C10.0129 9.16903 10.25 8.59674 10.25 8C10.25 7.40326 10.0129 6.83097 9.59099 6.40901C9.16903 5.98705 8.59674 5.75 8 5.75C7.40326 5.75 6.83097 5.98705 6.40901 6.40901C5.98705 6.83097 5.75 7.40326 5.75 8Z" stroke="#08135E" stroke-linecap="round" stroke-linejoin="round"/>
</svg>
