<svg width="15" height="13" viewBox="0 0 15 13" fill="none" xmlns="http://www.w3.org/2000/svg">
<path d="M12.4584 4.37501C12.02 4.37624 11.5927 4.51305 11.2351 4.76667C10.8775 5.0203 10.6071 5.37833 10.4609 5.79168H1.12508C0.93722 5.79168 0.757052 5.8663 0.624214 5.99914C0.491376 6.13198 0.416748 6.31215 0.416748 6.50001C0.416748 6.68787 0.491376 6.86804 0.624214 7.00088C0.757052 7.13371 0.93722 7.20834 1.12508 7.20834H10.4609C10.5909 7.57588 10.8194 7.90059 11.1215 8.14694C11.4237 8.39328 11.7877 8.55177 12.1739 8.60506C12.5601 8.65834 12.9535 8.60437 13.311 8.44905C13.6686 8.29373 13.9765 8.04304 14.2012 7.72443C14.4258 7.40582 14.5584 7.03155 14.5846 6.6426C14.6107 6.25364 14.5294 5.86498 14.3495 5.51916C14.1695 5.17334 13.8979 4.88368 13.5644 4.68188C13.2309 4.48008 12.8482 4.37391 12.4584 4.37501ZM12.4584 7.20834C12.3183 7.20834 12.1814 7.1668 12.0649 7.08897C11.9484 7.01113 11.8576 6.90051 11.804 6.77108C11.7504 6.64164 11.7364 6.49922 11.7637 6.36182C11.791 6.22442 11.8585 6.0982 11.9575 5.99914C12.0566 5.90008 12.1828 5.83262 12.3202 5.80529C12.4576 5.77795 12.6 5.79198 12.7295 5.84559C12.8589 5.89921 12.9695 5.98999 13.0474 6.10648C13.1252 6.22296 13.1667 6.35991 13.1667 6.50001C13.1667 6.68787 13.0921 6.86804 12.9593 7.00088C12.8264 7.13371 12.6463 7.20834 12.4584 7.20834Z" fill="#AEB0C2"/>
<path d="M1.12508 2.95827H1.96091C2.10981 3.36851 2.3814 3.72295 2.73878 3.97343C3.09616 4.22391 3.522 4.35828 3.95842 4.35828C4.39483 4.35828 4.82067 4.22391 5.17805 3.97343C5.53543 3.72295 5.80702 3.36851 5.95591 2.95827H13.8751C14.0629 2.95827 14.2431 2.88364 14.3759 2.75081C14.5088 2.61797 14.5834 2.4378 14.5834 2.24994C14.5834 2.06208 14.5088 1.88191 14.3759 1.74907C14.2431 1.61623 14.0629 1.54161 13.8751 1.54161H5.95591C5.80702 1.13137 5.53543 0.776932 5.17805 0.526452C4.82067 0.275972 4.39483 0.141602 3.95842 0.141602C3.522 0.141602 3.09616 0.275972 2.73878 0.526452C2.3814 0.776932 2.10981 1.13137 1.96091 1.54161H1.12508C0.93722 1.54161 0.757052 1.61623 0.624214 1.74907C0.491376 1.88191 0.416748 2.06208 0.416748 2.24994C0.416748 2.4378 0.491376 2.61797 0.624214 2.75081C0.757052 2.88364 0.93722 2.95827 1.12508 2.95827ZM3.95842 1.54161C4.09851 1.54161 4.23546 1.58315 4.35194 1.66098C4.46843 1.73881 4.55922 1.84944 4.61283 1.97887C4.66644 2.1083 4.68047 2.25072 4.65314 2.38813C4.62581 2.52553 4.55834 2.65174 4.45928 2.75081C4.36022 2.84987 4.23401 2.91733 4.0966 2.94466C3.9592 2.97199 3.81678 2.95797 3.68735 2.90435C3.55792 2.85074 3.44729 2.75995 3.36946 2.64347C3.29162 2.52698 3.25008 2.39003 3.25008 2.24994C3.25008 2.06208 3.32471 1.88191 3.45755 1.74907C3.59039 1.61623 3.77055 1.54161 3.95842 1.54161Z" fill="#AEB0C2"/>
<path d="M13.8751 10.0416H8.78925C8.64035 9.63137 8.36876 9.27693 8.01138 9.02645C7.654 8.77597 7.22817 8.6416 6.79175 8.6416C6.35533 8.6416 5.9295 8.77597 5.57211 9.02645C5.21474 9.27693 4.94314 9.63137 4.79425 10.0416H1.12508C0.93722 10.0416 0.757052 10.1162 0.624214 10.2491C0.491376 10.3819 0.416748 10.5621 0.416748 10.7499C0.416748 10.9378 0.491376 11.118 0.624214 11.2508C0.757052 11.3836 0.93722 11.4583 1.12508 11.4583H4.79425C4.94314 11.8685 5.21474 12.2229 5.57211 12.4734C5.9295 12.7239 6.35533 12.8583 6.79175 12.8583C7.22817 12.8583 7.654 12.7239 8.01138 12.4734C8.36876 12.2229 8.64035 11.8685 8.78925 11.4583H13.8751C14.0629 11.4583 14.2431 11.3836 14.3759 11.2508C14.5088 11.118 14.5834 10.9378 14.5834 10.7499C14.5834 10.5621 14.5088 10.3819 14.3759 10.2491C14.2431 10.1162 14.0629 10.0416 13.8751 10.0416ZM6.79175 11.4583C6.65165 11.4583 6.5147 11.4167 6.39822 11.3389C6.28173 11.2611 6.19095 11.1504 6.13733 11.021C6.08372 10.8916 6.06969 10.7492 6.09703 10.6117C6.12436 10.4743 6.19182 10.3481 6.29088 10.2491C6.38994 10.15 6.51616 10.0825 6.65356 10.0552C6.79096 10.0279 6.93338 10.0419 7.06282 10.0955C7.19225 10.1491 7.30287 10.2399 7.38071 10.3564C7.45854 10.4729 7.50008 10.6098 7.50008 10.7499C7.50008 10.9378 7.42545 11.118 7.29262 11.2508C7.15978 11.3836 6.97961 11.4583 6.79175 11.4583Z" fill="#AEB0C2"/>
</svg>
