<svg width="16" height="18" viewBox="0 0 16 18" fill="none" xmlns="http://www.w3.org/2000/svg">
<path d="M9.78549 18C9.58259 18 9.38517 17.9298 9.22285 17.8L5.47193 14.75C5.35719 14.6558 5.26446 14.5346 5.20101 14.3958C5.13756 14.257 5.10512 14.1044 5.10621 13.95V10.68L0.605103 1.46C0.530975 1.30741 0.494971 1.13703 0.500565 0.965285C0.506159 0.79354 0.553162 0.626231 0.63704 0.479497C0.720918 0.332762 0.83884 0.211555 0.979431 0.127567C1.12002 0.0435786 1.27854 -0.000355656 1.43968 2.16836e-06H14.5679C14.7307 3.2436e-05 14.8906 0.0452256 15.032 0.131138C15.1734 0.217051 15.2914 0.340725 15.3744 0.490002C15.4567 0.642021 15.5 0.814465 15.5 0.990002C15.5 1.16554 15.4567 1.33798 15.3744 1.49L10.6857 10.7V17C10.6869 17.1864 10.6393 17.3694 10.5482 17.5284C10.457 17.6874 10.326 17.8161 10.17 17.9C10.0499 17.9621 9.91886 17.9962 9.78549 18ZM6.9723 13.46L8.84776 14.99V10.44C8.84717 10.2876 8.87925 10.1371 8.94153 10L12.9738 2H2.97756L6.85039 10C6.91877 10.1423 6.95415 10.3001 6.95354 10.46L6.9723 13.46Z" fill="#08135E"/>
</svg>
