<svg width="18" height="18" viewBox="0 0 18 18" fill="none" xmlns="http://www.w3.org/2000/svg">
<g id="Group 626">
<path id="Path 195" d="M18 9C18 10.78 17.4722 12.5201 16.4832 14.0001C15.4943 15.4802 14.0887 16.6337 12.4442 17.3149C10.7996 17.9961 8.99002 18.1743 7.24419 17.8271C5.49836 17.4798 3.89471 16.6226 2.63604 15.364C1.37737 14.1053 0.520199 12.5016 0.172933 10.7558C-0.174334 9.00998 0.00389624 7.20038 0.685085 5.55585C1.36627 3.91131 2.51983 2.5057 3.99987 1.51677C5.47991 0.527838 7.21997 -3.34349e-06 9 -3.42129e-06C11.3869 -3.52563e-06 13.6761 0.948208 15.364 2.63604C17.0518 4.32386 18 6.61305 18 9V9ZM1.28571 9C1.28571 10.5257 1.73815 12.0172 2.58581 13.2858C3.43346 14.5544 4.63827 15.5432 6.04787 16.1271C7.45747 16.7109 9.00856 16.8637 10.505 16.5661C12.0014 16.2684 13.376 15.5337 14.4548 14.4548C15.5337 13.376 16.2684 12.0014 16.5661 10.505C16.8637 9.00855 16.7109 7.45747 16.1271 6.04787C15.5432 4.63826 14.5544 3.43346 13.2858 2.5858C12.0172 1.73815 10.5257 1.28571 9 1.28571C6.95404 1.28571 4.99189 2.09846 3.54518 3.54517C2.09847 4.99188 1.28571 6.95404 1.28571 9Z" fill="#10BDA5"/>
<path id="Path 196" d="M12.2742 8.35715L12.2742 9.64286L9.64274 9.64286L9.64274 12.2743L8.35703 12.2743L8.35703 9.64286L5.7256 9.64286L5.7256 8.35715L8.35703 8.35715L8.35703 5.72572L9.64274 5.72572L9.64274 8.35715L12.2742 8.35715Z" fill="#10BDA5"/>
</g>
</svg>
