<svg width="28" height="28" viewBox="0 0 28 28" fill="none" xmlns="http://www.w3.org/2000/svg">
<path d="M3.07235 0H12.6414C13.7296 0 14.7665 0.431409 15.5346 1.20014L26.7999 12.4622C28.4 14.0624 28.4 16.6611 26.7999 18.2613L18.2613 26.7999C16.6611 28.4 14.0624 28.4 12.4622 26.7999L1.20014 15.5346C0.431601 14.7665 0 13.7296 0 12.6414V3.07235C0 1.37552 1.37552 0 3.07235 0ZM7.16882 9.21705C8.30175 9.21705 9.21705 8.30175 9.21705 7.16882C9.21705 6.03589 8.30175 5.12058 7.16882 5.12058C6.03781 5.12058 5.12058 6.03589 5.12058 7.16882C5.12058 8.30175 6.03781 9.21705 7.16882 9.21705Z" fill="#10BDA5"/>
</svg>
