<svg width="14" height="14" viewBox="0 0 14 14" fill="none" xmlns="http://www.w3.org/2000/svg">
<path d="M5.81565 10.1906L4.81253 11.1938V1.75C4.81253 1.63397 4.76644 1.52269 4.68439 1.44064C4.60234 1.35859 4.49106 1.3125 4.37503 1.3125C4.259 1.3125 4.14772 1.35859 4.06567 1.44064C3.98362 1.52269 3.93753 1.63397 3.93753 1.75V11.1938L2.93441 10.1906C2.85236 10.1086 2.74107 10.0625 2.62503 10.0625C2.50899 10.0625 2.3977 10.1086 2.31565 10.1906C2.2336 10.2727 2.1875 10.384 2.1875 10.5C2.1875 10.616 2.2336 10.7273 2.31565 10.8094L4.06565 12.5594C4.06773 12.5614 4.07 12.5632 4.07211 12.5652C4.08036 12.5731 4.08872 12.581 4.09759 12.5882C4.10322 12.5928 4.10912 12.5969 4.11494 12.6012C4.12058 12.6054 4.1261 12.6098 4.13195 12.6137C4.13857 12.6182 4.14544 12.622 4.15224 12.626C4.15772 12.6293 4.16303 12.6327 4.16867 12.6357C4.17545 12.6394 4.18242 12.6425 4.18936 12.6457C4.1954 12.6485 4.20132 12.6516 4.20752 12.6541C4.21417 12.6569 4.22098 12.6591 4.22776 12.6615C4.23446 12.6639 4.24108 12.6665 4.24792 12.6686C4.25468 12.6707 4.26154 12.6721 4.26837 12.6739C4.2754 12.6756 4.28234 12.6776 4.2895 12.679C4.29727 12.6806 4.30512 12.6815 4.31294 12.6826C4.31927 12.6835 4.32546 12.6847 4.33185 12.6853C4.34619 12.6867 4.3606 12.6875 4.37502 12.6875C4.38944 12.6875 4.40386 12.6867 4.4182 12.6853C4.42458 12.6847 4.43078 12.6835 4.43711 12.6826C4.44493 12.6815 4.45278 12.6806 4.46055 12.679C4.46771 12.6776 4.47465 12.6756 4.48168 12.6739C4.48851 12.6721 4.49537 12.6707 4.50213 12.6686C4.50897 12.6665 4.51559 12.6639 4.52229 12.6615C4.52907 12.6591 4.53588 12.6569 4.54253 12.6541C4.54873 12.6516 4.55465 12.6485 4.56069 12.6457C4.56763 12.6425 4.5746 12.6394 4.58138 12.6357C4.58701 12.6327 4.59233 12.6293 4.5978 12.626C4.60461 12.622 4.61148 12.6182 4.6181 12.6137C4.62395 12.6098 4.62947 12.6054 4.63511 12.6012C4.64093 12.5969 4.64683 12.5928 4.65246 12.5882C4.66133 12.581 4.66969 12.5731 4.67794 12.5652C4.68005 12.5632 4.68232 12.5614 4.6844 12.5594L6.4344 10.8094C6.51645 10.7273 6.56255 10.616 6.56255 10.5C6.56255 10.384 6.51645 10.2727 6.4344 10.1906C6.35235 10.1086 6.24106 10.0625 6.12502 10.0625C6.00898 10.0625 5.89769 10.1086 5.81564 10.1906H5.81565Z" fill="#817D9D"/>
<path d="M11.6844 3.19055L9.9344 1.44055C9.93248 1.43866 9.9304 1.43705 9.92845 1.43519C9.92004 1.42709 9.91149 1.41914 9.90247 1.41171C9.89686 1.40712 9.89098 1.40309 9.88522 1.39882C9.8795 1.39457 9.87397 1.39017 9.86807 1.38621C9.8615 1.38181 9.85472 1.37802 9.84799 1.37401C9.84244 1.37073 9.83704 1.36723 9.83136 1.36418C9.82465 1.36058 9.81776 1.35753 9.8109 1.35433C9.80479 1.35145 9.79875 1.34838 9.79248 1.34579C9.78591 1.34306 9.77921 1.34087 9.77253 1.3385C9.76575 1.33604 9.75902 1.33342 9.75208 1.33131C9.7454 1.32931 9.73865 1.32781 9.73189 1.32613C9.72479 1.32434 9.71777 1.32234 9.71053 1.32092C9.70284 1.31938 9.69504 1.31847 9.68727 1.31737C9.68092 1.31647 9.67464 1.31524 9.6682 1.31462C9.63949 1.31179 9.61056 1.31179 9.58185 1.31462C9.57541 1.31524 9.56914 1.31647 9.56278 1.31737C9.55501 1.31847 9.54721 1.31938 9.53952 1.32092C9.53229 1.32234 9.52526 1.32434 9.51816 1.32613C9.5114 1.32781 9.50465 1.32931 9.49797 1.33131C9.49103 1.33342 9.4843 1.33604 9.47752 1.3385C9.47085 1.34087 9.46414 1.34306 9.45757 1.34579C9.4513 1.34838 9.44526 1.35145 9.43915 1.35433C9.43229 1.35753 9.4254 1.36058 9.4187 1.36418C9.41301 1.36723 9.40761 1.37073 9.40206 1.37401C9.39533 1.37802 9.38855 1.38181 9.38198 1.38621C9.37608 1.39017 9.37055 1.39457 9.36484 1.39882C9.35907 1.40309 9.35319 1.40712 9.34759 1.41171C9.33856 1.41914 9.33002 1.4271 9.3216 1.43519C9.31966 1.43706 9.31757 1.43866 9.31565 1.44055L7.56565 3.19055C7.52502 3.23118 7.49279 3.27941 7.4708 3.3325C7.44882 3.38558 7.4375 3.44248 7.4375 3.49993C7.4375 3.55739 7.44882 3.61428 7.4708 3.66737C7.49279 3.72045 7.52502 3.76868 7.56565 3.80931C7.6477 3.89137 7.75899 3.93746 7.87503 3.93746C7.93249 3.93746 7.98938 3.92615 8.04246 3.90416C8.09555 3.88217 8.14378 3.84994 8.18441 3.80931L9.18752 2.80617V12.2499C9.18752 12.366 9.23362 12.4772 9.31566 12.5593C9.39771 12.6413 9.50899 12.6874 9.62502 12.6874C9.74106 12.6874 9.85234 12.6413 9.93438 12.5593C10.0164 12.4772 10.0625 12.366 10.0625 12.2499V2.80617L11.0656 3.80932C11.1063 3.84994 11.1545 3.88217 11.2076 3.90416C11.2607 3.92615 11.3176 3.93746 11.375 3.93746C11.4325 3.93746 11.4894 3.92615 11.5425 3.90416C11.5955 3.88217 11.6438 3.84994 11.6844 3.80932C11.725 3.76869 11.7573 3.72045 11.7792 3.66737C11.8012 3.61429 11.8126 3.55739 11.8126 3.49994C11.8126 3.44248 11.8012 3.38558 11.7792 3.3325C11.7573 3.27942 11.725 3.23118 11.6844 3.19056V3.19055Z" fill="#817D9D"/>
</svg>
