<svg width="17" height="17" viewBox="0 0 17 17" fill="none" xmlns="http://www.w3.org/2000/svg">
<path d="M10.5 2.50031L14.5 6.5003M1 16.0003H5L15.5 5.5003C15.7626 5.23766 15.971 4.92585 16.1131 4.58269C16.2553 4.23953 16.3284 3.87174 16.3284 3.5003C16.3284 3.12887 16.2553 2.76107 16.1131 2.41791C15.971 2.07475 15.7626 1.76295 15.5 1.5003C15.2374 1.23766 14.9256 1.02932 14.5824 0.887177C14.2392 0.745035 13.8714 0.671875 13.5 0.671875C13.1286 0.671875 12.7608 0.745035 12.4176 0.887177C12.0744 1.02932 11.7626 1.23766 11.5 1.5003L1 12.0003V16.0003Z" stroke="#08135E" stroke-linecap="round" stroke-linejoin="round"/>
</svg>
