<svg width="14" height="14" viewBox="0 0 14 14" fill="none" xmlns="http://www.w3.org/2000/svg">
<path d="M7.00001 13.4651C3.40001 13.4651 0.466675 10.5318 0.466675 6.93177C0.466675 3.33177 3.40001 0.398438 7.00001 0.398438C10.6 0.398438 13.5333 3.33177 13.5333 6.93177C13.5333 10.5318 10.6 13.4651 7.00001 13.4651Z" fill="#10BDA5"/>
<path d="M7 1C3.66667 1 1 3.66667 1 7C1 10.3333 3.66667 13 7 13C10.3333 13 13 10.3333 13 7C13 3.66667 10.3333 1 7 1ZM7 0C10.8667 0 14 3.13333 14 7C14 10.8667 10.8667 14 7 14C3.13333 14 0 10.8667 0 7C0 3.13333 3.13333 0 7 0Z" fill="#10BDA5"/>
<path d="M6.53335 9.3349C6.40002 9.3349 6.26668 9.26823 6.13335 9.20156L3.93335 7.20156L4.66668 6.3349L6.46668 7.9349L9.20002 4.60156L10.1333 5.3349L7.00002 9.1349C6.86668 9.26823 6.73335 9.3349 6.53335 9.3349Z" fill="#F6EFE4"/>
</svg>
