<svg width="19" height="20" viewBox="0 0 19 20" fill="none" xmlns="http://www.w3.org/2000/svg">
<path d="M19 10.1201C19 11.999 18.4428 13.8358 17.399 15.398C16.3551 16.9603 14.8714 18.1779 13.1355 18.897C11.3996 19.616 9.48946 19.8041 7.64664 19.4376C5.80382 19.071 4.11108 18.1662 2.78249 16.8376C1.45389 15.509 0.549099 13.8163 0.182541 11.9735C-0.18402 10.1307 0.00411175 8.22052 0.723146 6.48462C1.44218 4.74872 2.65982 3.26503 4.22208 2.22115C5.78435 1.17728 7.62108 0.620114 9.5 0.620114C12.0196 0.620114 14.4359 1.621 16.2175 3.4026C17.9991 5.18419 19 7.60056 19 10.1201V10.1201ZM1.35714 10.1201C1.35714 11.7306 1.83471 13.305 2.72946 14.644C3.62421 15.9831 4.89595 17.0268 6.38386 17.6431C7.87178 18.2594 9.50903 18.4207 11.0886 18.1065C12.6682 17.7923 14.1191 17.0168 15.2579 15.878C16.3967 14.7392 17.1722 13.2883 17.4864 11.7087C17.8006 10.1291 17.6393 8.49189 17.023 7.00398C16.4067 5.51606 15.363 4.24432 14.0239 3.34958C12.6848 2.45483 11.1105 1.97726 9.5 1.97726C7.34038 1.97726 5.26921 2.83516 3.74213 4.36225C2.21505 5.88933 1.35714 7.96049 1.35714 10.1201Z" fill="#817D9D"/>
<path d="M12.9562 9.44153L12.9562 10.7987L10.1786 10.7987L10.1786 13.5763L8.82141 13.5763L8.82141 10.7987L6.0438 10.7987L6.0438 9.44153L8.82141 9.44153L8.82141 6.66391L10.1786 6.66391L10.1786 9.44153L12.9562 9.44153Z" fill="#817D9D"/>
</svg>
