<svg width="15" height="16" viewBox="0 0 15 16" fill="none" xmlns="http://www.w3.org/2000/svg">
<path d="M12.6562 1.99609H8.54062L6.88125 0.505469C6.6082 0.260048 6.25463 0.123288 5.8875 0.121094L2.34375 0.121094C1.72215 0.121094 1.12601 0.368024 0.686468 0.807562C0.24693 1.2471 0 1.84324 0 2.46484L0 12.7773C0 13.3989 0.24693 13.9951 0.686468 14.4346C1.12601 14.8742 1.72215 15.1211 2.34375 15.1211H12.6562C13.2779 15.1211 13.874 14.8742 14.3135 14.4346C14.7531 13.9951 15 13.3989 15 12.7773V4.33984C15 3.71824 14.7531 3.1221 14.3135 2.68256C13.874 2.24302 13.2779 1.99609 12.6562 1.99609ZM13.5938 12.7773C13.5938 13.026 13.495 13.2644 13.3192 13.4403C13.1433 13.6161 12.9049 13.7148 12.6562 13.7148H2.34375C2.09511 13.7148 1.85665 13.6161 1.68084 13.4403C1.50502 13.2644 1.40625 13.026 1.40625 12.7773V2.46484C1.40625 2.2162 1.50502 1.97775 1.68084 1.80193C1.85665 1.62612 2.09511 1.52734 2.34375 1.52734H5.8875H5.94375L7.60312 3.02734L8.00625 3.38359H12.6938C12.9424 3.38359 13.1808 3.48237 13.3567 3.65818C13.5325 3.834 13.6313 4.07245 13.6313 4.32109L13.5938 12.7773Z" fill="#817D9D"/>
<path d="M7.241 9.94209V6.00009H7.997V9.94209H7.241ZM5.603 8.33109V7.62009H9.635V8.33109H5.603Z" fill="#817D9D"/>
</svg>
