<svg width="15" height="15" viewBox="0 0 15 15" fill="none" xmlns="http://www.w3.org/2000/svg">
<path d="M12.6562 1.875H8.54062L6.88125 0.384375C6.6082 0.138954 6.25463 0.00219464 5.8875 0L2.34375 0C1.72215 0 1.12601 0.24693 0.686468 0.686468C0.24693 1.12601 0 1.72215 0 2.34375L0 12.6562C0 13.2779 0.24693 13.874 0.686468 14.3135C1.12601 14.7531 1.72215 15 2.34375 15H12.6562C13.2779 15 13.874 14.7531 14.3135 14.3135C14.7531 13.874 15 13.2779 15 12.6562V4.21875C15 3.59715 14.7531 3.00101 14.3135 2.56147C13.874 2.12193 13.2779 1.875 12.6562 1.875ZM13.5938 12.6562C13.5938 12.9049 13.495 13.1433 13.3192 13.3192C13.1433 13.495 12.9049 13.5938 12.6562 13.5938H2.34375C2.09511 13.5938 1.85665 13.495 1.68084 13.3192C1.50502 13.1433 1.40625 12.9049 1.40625 12.6562V2.34375C1.40625 2.09511 1.50502 1.85665 1.68084 1.68084C1.85665 1.50502 2.09511 1.40625 2.34375 1.40625H5.8875H5.94375L7.60312 2.90625L8.00625 3.2625H12.6938C12.9424 3.2625 13.1808 3.36127 13.3567 3.53709C13.5325 3.7129 13.6313 3.95136 13.6313 4.2L13.5938 12.6562Z" fill="#08135E"/>
<path d="M7.241 9.821V5.879H7.997V9.821H7.241ZM5.603 8.21V7.499H9.635V8.21H5.603Z" fill="#08135E"/>
</svg>
