<svg width="15" height="15" viewBox="0 0 15 15" fill="none" xmlns="http://www.w3.org/2000/svg">
<path d="M10.7143 2.67871H1.60714C0.719541 2.67871 0 3.39825 0 4.28585V13.393C0 14.2806 0.719541 15.0001 1.60714 15.0001H10.7143C11.6019 15.0001 12.3214 14.2806 12.3214 13.393V4.28585C12.3214 3.39825 11.6019 2.67871 10.7143 2.67871ZM11.25 13.393C11.25 13.6889 11.0101 13.9287 10.7143 13.9287H1.60714C1.31126 13.9287 1.07142 13.6889 1.07142 13.393V4.28585C1.07142 3.98998 1.31126 3.75013 1.60714 3.75013H10.7143C11.0101 3.75013 11.25 3.98998 11.25 4.28585V13.393Z" fill="#08135E"/>
<path d="M13.3928 0H3.74996C2.86236 0 2.14282 0.719541 2.14282 1.60714C2.14282 1.90302 2.38267 2.14287 2.67855 2.14287C2.97442 2.14287 3.21424 1.90302 3.21424 1.60714C3.21424 1.31126 3.45409 1.07142 3.74996 1.07142H13.3928C13.6887 1.07142 13.9285 1.31126 13.9285 1.60714V11.25C13.9285 11.5459 13.6887 11.7857 13.3928 11.7857C13.0969 11.7857 12.8571 12.0256 12.8571 12.3214C12.8571 12.6173 13.0969 12.8572 13.3928 12.8572C14.2804 12.8572 15 12.1376 15 11.25V1.60714C15 0.719541 14.2804 0 13.3928 0Z" fill="#08135E"/>
</svg>
