<svg width="23" height="27" viewBox="0 0 23 27" fill="none" xmlns="http://www.w3.org/2000/svg">
<g clip-path="url(#clip0_2453_47096)">
<path d="M18.2322 23.4375L18.2322 7.50003C18.2322 6.04726 17.23 4.93754 16.0715 4.93754L2.41077 4.93754C1.25221 4.93754 0.250058 6.04726 0.250058 7.50003L0.250059 23.4375C0.250059 24.8903 1.25221 26 2.41077 26L16.0715 26C17.23 26 18.2322 24.8903 18.2322 23.4375ZM1.35714 7.50003C1.35714 6.88172 1.79407 6.31252 2.41073 6.31252L16.0715 6.31252C16.6881 6.31252 17.1251 6.88172 17.1251 7.50003L17.1251 23.4375C17.1251 24.0558 16.6881 24.625 16.0715 24.625L2.41073 24.625C1.79407 24.625 1.35714 24.0558 1.35714 23.4375L1.35714 7.50003Z" fill="#817D9D" stroke="#817D9D" stroke-width="0.5"/>
<path d="M22.25 19.6875L22.25 2.81252C22.25 1.35975 21.2478 0.250021 20.0893 0.250021L5.62496 0.250022C4.4664 0.250022 3.46425 1.35975 3.46425 2.81252C3.46425 3.22978 3.74686 3.50004 4.01783 3.50004C4.28881 3.50004 4.57142 3.22978 4.57142 2.81252C4.57142 2.19421 5.00835 1.625 5.62501 1.625L20.0893 1.625C20.7059 1.625 21.1429 2.19421 21.1429 2.81252L21.1429 19.6875C21.1429 20.3058 20.7059 20.875 20.0893 20.875C19.8183 20.875 19.5357 21.1452 19.5357 21.5625C19.5357 21.9797 19.8183 22.25 20.0893 22.25C21.2479 22.25 22.25 21.1403 22.25 19.6875Z" fill="#817D9D" stroke="#817D9D" stroke-width="0.5"/>
</g>
<defs>
<clipPath id="clip0_2453_47096">
<rect width="26.25" height="22.5" fill="white" transform="matrix(-4.37114e-08 -1 -1 4.37114e-08 22.5 26.25)"/>
</clipPath>
</defs>
</svg>
