<svg width="15" height="14" viewBox="0 0 15 14" fill="none" xmlns="http://www.w3.org/2000/svg">
<path d="M12.6562 1.75H8.54062L6.88125 0.35875C6.6082 0.129691 6.25463 0.00204833 5.8875 0L2.34375 0C1.72215 0 1.12601 0.230468 0.686468 0.640704C0.24693 1.05094 0 1.60734 0 2.1875L0 11.8125C0 12.3927 0.24693 12.9491 0.686468 13.3593C1.12601 13.7695 1.72215 14 2.34375 14H12.6562C13.2779 14 13.874 13.7695 14.3135 13.3593C14.7531 12.9491 15 12.3927 15 11.8125V3.9375C15 3.35734 14.7531 2.80094 14.3135 2.3907C13.874 1.98047 13.2779 1.75 12.6562 1.75ZM13.5938 11.8125C13.5938 12.0446 13.495 12.2671 13.3192 12.4312C13.1433 12.5953 12.9049 12.6875 12.6562 12.6875H2.34375C2.09511 12.6875 1.85665 12.5953 1.68084 12.4312C1.50502 12.2671 1.40625 12.0446 1.40625 11.8125V2.1875C1.40625 1.95544 1.50502 1.73288 1.68084 1.56878C1.85665 1.40469 2.09511 1.3125 2.34375 1.3125H5.8875H5.94375L7.60312 2.7125L8.00625 3.045H12.6938C12.9424 3.045 13.1808 3.13719 13.3567 3.30128C13.5325 3.46538 13.6313 3.68794 13.6313 3.92L13.5938 11.8125Z" fill="#08135E"/>
<path d="M6.71548 5.22699L8.3936 7.13449H4.61548V8.00949H8.3936L6.71548 9.91699L7.44673 10.477L9.99673 7.58074L7.44673 4.66699L6.71548 5.22699Z" fill="#08135E"/>
</svg>
