<svg width="21" height="20" viewBox="0 0 21 20" fill="none" xmlns="http://www.w3.org/2000/svg">
<path d="M10.5001 10.8346C10.9603 10.8346 11.3334 10.4615 11.3334 10.0013C11.3334 9.54106 10.9603 9.16797 10.5001 9.16797C10.0398 9.16797 9.66675 9.54106 9.66675 10.0013C9.66675 10.4615 10.0398 10.8346 10.5001 10.8346Z" fill="#AEB0C2"/>
<path d="M13.8333 10.8346C14.2936 10.8346 14.6667 10.4615 14.6667 10.0013C14.6667 9.54106 14.2936 9.16797 13.8333 9.16797C13.3731 9.16797 13 9.54106 13 10.0013C13 10.4615 13.3731 10.8346 13.8333 10.8346Z" fill="#AEB0C2"/>
<path d="M7.16659 10.8346C7.62682 10.8346 7.99992 10.4615 7.99992 10.0013C7.99992 9.54106 7.62682 9.16797 7.16659 9.16797C6.70635 9.16797 6.33325 9.54106 6.33325 10.0013C6.33325 10.4615 6.70635 10.8346 7.16659 10.8346Z" fill="#AEB0C2"/>
<path d="M16.3915 4.10843C15.0242 2.73218 13.2196 1.87611 11.2887 1.6878C9.35786 1.49949 7.42181 1.99075 5.81434 3.07688C4.20687 4.163 3.02872 5.77594 2.48299 7.63761C1.93726 9.49928 2.05817 11.493 2.82485 13.2751C2.90476 13.4407 2.93098 13.6272 2.89985 13.8084L2.16652 17.3334C2.13827 17.4686 2.14404 17.6086 2.18331 17.741C2.22258 17.8734 2.29413 17.9939 2.39152 18.0918C2.47136 18.171 2.56642 18.2333 2.67097 18.2748C2.77552 18.3164 2.88739 18.3363 2.99985 18.3334H3.16652L6.73319 17.6168C6.91446 17.595 7.09829 17.6208 7.26652 17.6918C9.0486 18.4585 11.0423 18.5794 12.904 18.0336C14.7657 17.4879 16.3786 16.3097 17.4647 14.7023C18.5509 13.0948 19.0421 11.1588 18.8538 9.22792C18.6655 7.29707 17.8094 5.49242 16.4332 4.1251L16.3915 4.10843ZM17.0832 11.0751C16.9203 12.0701 16.5338 13.0152 15.9528 13.8392C15.3719 14.6632 14.6116 15.3447 13.7291 15.8325C12.8467 16.3202 11.8652 16.6015 10.8584 16.655C9.85156 16.7086 8.84571 16.5331 7.91652 16.1418C7.58697 16.0016 7.23296 15.928 6.87485 15.9251C6.71842 15.9262 6.56234 15.9401 6.40819 15.9668L4.05819 16.4418L4.53319 14.0918C4.62779 13.5828 4.56681 13.0572 4.35819 12.5834C3.96685 11.6542 3.79136 10.6484 3.84493 9.64158C3.8985 8.63477 4.17974 7.65322 4.66747 6.77081C5.15521 5.88839 5.83674 5.1281 6.66077 4.54714C7.4848 3.96618 8.42987 3.5797 9.42485 3.41677C10.4692 3.24536 11.5394 3.32508 12.5469 3.64932C13.5544 3.97356 14.4702 4.533 15.2186 5.28138C15.967 6.02976 16.5264 6.94556 16.8506 7.95304C17.1749 8.96051 17.2546 10.0307 17.0832 11.0751Z" fill="#AEB0C2"/>
</svg>
