<svg width="16" height="16" viewBox="0 0 16 16" fill="none" xmlns="http://www.w3.org/2000/svg">
<path d="M8 0.5C3.8675 0.5 0.5 3.8675 0.5 8C0.5 12.1325 3.8675 15.5 8 15.5C12.1325 15.5 15.5 12.1325 15.5 8C15.5 3.8675 12.1325 0.5 8 0.5ZM11 8.5625H8.5625V11C8.5625 11.3075 8.3075 11.5625 8 11.5625C7.6925 11.5625 7.4375 11.3075 7.4375 11V8.5625H5C4.6925 8.5625 4.4375 8.3075 4.4375 8C4.4375 7.6925 4.6925 7.4375 5 7.4375H7.4375V5C7.4375 4.6925 7.6925 4.4375 8 4.4375C8.3075 4.4375 8.5625 4.6925 8.5625 5V7.4375H11C11.3075 7.4375 11.5625 7.6925 11.5625 8C11.5625 8.3075 11.3075 8.5625 11 8.5625Z" fill="#10BDA5"/>
</svg>
