<svg width="14" height="16" viewBox="0 0 14 16" fill="none" xmlns="http://www.w3.org/2000/svg">
<path d="M10.615 0.433594H3.38499C1.79499 0.433594 0.48999 1.73859 0.48999 3.32859V13.8961C0.48999 15.2461 1.45749 15.8161 2.64249 15.1636L6.30249 13.1311C6.69249 12.9136 7.32249 12.9136 7.70499 13.1311L11.365 15.1636C12.55 15.8236 13.5175 15.2536 13.5175 13.8961V3.32859C13.51 1.73859 12.2125 0.433594 10.615 0.433594ZM9.71499 5.77359L6.71499 8.77359C6.60249 8.88609 6.45999 8.93859 6.31749 8.93859C6.17499 8.93859 6.03249 8.88609 5.91999 8.77359L4.79499 7.64859C4.57749 7.43109 4.57749 7.07109 4.79499 6.85359C5.01249 6.63609 5.37249 6.63609 5.58999 6.85359L6.31749 7.58109L8.91999 4.97859C9.13749 4.76109 9.49749 4.76109 9.71499 4.97859C9.93249 5.19609 9.93249 5.55609 9.71499 5.77359Z" fill="#08135E"/>
</svg>
