<svg width="17" height="18" viewBox="0 0 17 18" fill="none" xmlns="http://www.w3.org/2000/svg">
<path d="M11.9141 1.85156H5.08573C3.58406 1.85156 2.35156 3.08406 2.35156 4.58573V14.5661C2.35156 15.8411 3.26531 16.3795 4.38448 15.7632L7.84115 13.8436C8.20948 13.6382 8.80448 13.6382 9.16573 13.8436L12.6224 15.7632C13.7416 16.3866 14.6553 15.8482 14.6553 14.5661V4.58573C14.6482 3.08406 13.4228 1.85156 11.9141 1.85156ZM11.0641 6.8949L8.23073 9.72823C8.12448 9.83448 7.9899 9.88406 7.85531 9.88406C7.72073 9.88406 7.58615 9.83448 7.4799 9.72823L6.4174 8.66573C6.21198 8.46031 6.21198 8.12031 6.4174 7.9149C6.62281 7.70948 6.96281 7.70948 7.16823 7.9149L7.85531 8.60198L10.3132 6.14406C10.5186 5.93865 10.8586 5.93865 11.0641 6.14406C11.2695 6.34948 11.2695 6.68948 11.0641 6.8949Z" fill="#AEB0C2"/>
</svg>
