<svg width="17" height="18" viewBox="0 0 17 18" fill="none" xmlns="http://www.w3.org/2000/svg">
<path d="M15.0876 9.16406H12.6226C11.9284 9.16406 11.3122 9.54656 11.0005 10.1699L10.4055 11.3457C10.2638 11.6291 9.9805 11.8061 9.66883 11.8061H7.3455C7.12591 11.8061 6.81425 11.7566 6.60883 11.3457L6.01383 10.177C5.70216 9.56073 5.07883 9.17115 4.39175 9.17115H1.91258C1.63633 9.17115 1.41675 9.39073 1.41675 9.66698V11.9761C1.41675 14.5474 2.96091 16.0845 5.53925 16.0845H11.4751C13.9047 16.0845 15.3992 14.7528 15.5834 12.387V9.6599C15.5834 9.39073 15.3638 9.16406 15.0876 9.16406Z" fill="#AEB0C2"/>
<path d="M11.468 1.91406H5.53216C2.95383 1.91406 1.41675 3.45115 1.41675 6.02948V8.18281C1.57258 8.12615 1.74258 8.09781 1.91258 8.09781H4.39175C5.48966 8.09781 6.47425 8.70698 6.963 9.69156L7.49425 10.7328H9.52008L10.0513 9.68448C10.5401 8.70698 11.5247 8.09781 12.6226 8.09781H15.0876C15.2576 8.09781 15.4276 8.12615 15.5834 8.18281V6.02948C15.5834 3.45115 14.0463 1.91406 11.468 1.91406ZM7.40216 4.32948H9.598C9.86716 4.32948 10.0938 4.54906 10.0938 4.81823C10.0938 5.09448 9.86716 5.31406 9.598 5.31406H7.40216C7.133 5.31406 6.90633 5.09448 6.90633 4.81823C6.90633 4.54906 7.133 4.32948 7.40216 4.32948ZM10.1505 7.29031H6.84966C6.5805 7.29031 6.36091 7.07073 6.36091 6.80156C6.36091 6.52531 6.5805 6.30573 6.84966 6.30573H10.1505C10.4197 6.30573 10.6392 6.52531 10.6392 6.80156C10.6392 7.07073 10.4197 7.29031 10.1505 7.29031Z" fill="#AEB0C2"/>
</svg>
