<svg width="4" height="16" viewBox="0 0 4 16" fill="none" xmlns="http://www.w3.org/2000/svg">
<path d="M1.1665 7.9987C1.1665 8.21971 1.2543 8.43167 1.41058 8.58795C1.56686 8.74423 1.77882 8.83203 1.99984 8.83203C2.22085 8.83203 2.43281 8.74423 2.58909 8.58795C2.74537 8.43167 2.83317 8.21971 2.83317 7.9987C2.83317 7.77768 2.74537 7.56572 2.58909 7.40944C2.43281 7.25316 2.22085 7.16536 1.99984 7.16536C1.77882 7.16536 1.56686 7.25316 1.41058 7.40944C1.2543 7.56572 1.1665 7.77768 1.1665 7.9987Z" fill="#08135E"/>
<path d="M1.1665 13.832C1.1665 14.053 1.2543 14.265 1.41058 14.4213C1.56686 14.5776 1.77882 14.6654 1.99984 14.6654C2.22085 14.6654 2.43281 14.5776 2.58909 14.4213C2.74537 14.265 2.83317 14.053 2.83317 13.832C2.83317 13.611 2.74537 13.3991 2.58909 13.2428C2.43281 13.0865 2.22085 12.9987 1.99984 12.9987C1.77882 12.9987 1.56686 13.0865 1.41058 13.2428C1.2543 13.3991 1.1665 13.611 1.1665 13.832Z" fill="#08135E"/>
<path d="M1.1665 2.16536C1.1665 2.38638 1.2543 2.59834 1.41058 2.75462C1.56686 2.9109 1.77882 2.9987 1.99984 2.9987C2.22085 2.9987 2.43281 2.9109 2.58909 2.75462C2.74537 2.59834 2.83317 2.38638 2.83317 2.16536C2.83317 1.94435 2.74537 1.73239 2.58909 1.57611C2.43281 1.41983 2.22085 1.33203 1.99984 1.33203C1.77882 1.33203 1.56686 1.41983 1.41058 1.57611C1.2543 1.73239 1.1665 1.94435 1.1665 2.16536Z" fill="#08135E"/>
<path d="M1.1665 7.9987C1.1665 8.21971 1.2543 8.43167 1.41058 8.58795C1.56686 8.74423 1.77882 8.83203 1.99984 8.83203C2.22085 8.83203 2.43281 8.74423 2.58909 8.58795C2.74537 8.43167 2.83317 8.21971 2.83317 7.9987C2.83317 7.77768 2.74537 7.56572 2.58909 7.40944C2.43281 7.25316 2.22085 7.16536 1.99984 7.16536C1.77882 7.16536 1.56686 7.25316 1.41058 7.40944C1.2543 7.56572 1.1665 7.77768 1.1665 7.9987Z" stroke="#08135E" stroke-linecap="round" stroke-linejoin="round"/>
<path d="M1.1665 13.832C1.1665 14.053 1.2543 14.265 1.41058 14.4213C1.56686 14.5776 1.77882 14.6654 1.99984 14.6654C2.22085 14.6654 2.43281 14.5776 2.58909 14.4213C2.74537 14.265 2.83317 14.053 2.83317 13.832C2.83317 13.611 2.74537 13.3991 2.58909 13.2428C2.43281 13.0865 2.22085 12.9987 1.99984 12.9987C1.77882 12.9987 1.56686 13.0865 1.41058 13.2428C1.2543 13.3991 1.1665 13.611 1.1665 13.832Z" stroke="#08135E" stroke-linecap="round" stroke-linejoin="round"/>
<path d="M1.1665 2.16536C1.1665 2.38638 1.2543 2.59834 1.41058 2.75462C1.56686 2.9109 1.77882 2.9987 1.99984 2.9987C2.22085 2.9987 2.43281 2.9109 2.58909 2.75462C2.74537 2.59834 2.83317 2.38638 2.83317 2.16536C2.83317 1.94435 2.74537 1.73239 2.58909 1.57611C2.43281 1.41983 2.22085 1.33203 1.99984 1.33203C1.77882 1.33203 1.56686 1.41983 1.41058 1.57611C1.2543 1.73239 1.1665 1.94435 1.1665 2.16536Z" stroke="#08135E" stroke-linecap="round" stroke-linejoin="round"/>
</svg>
