<svg width="17" height="18" viewBox="0 0 17 18" fill="none" xmlns="http://www.w3.org/2000/svg">
<path d="M14.6307 5.83252C15.088 6.35231 14.6202 7.04948 13.9279 7.04948H2.41675C1.86446 7.04948 1.41675 6.60176 1.41675 6.04948V5.0449C1.41675 3.31656 2.81925 1.91406 4.54758 1.91406H6.19091C7.3455 1.91406 7.70675 2.28948 8.16716 2.90573L9.15883 4.22323C9.37841 4.51365 9.40675 4.54906 9.81758 4.54906H11.7938C12.9233 4.54906 13.9381 5.04522 14.6307 5.83252Z" fill="#AEB0C2"/>
<path d="M14.5726 8.1172C15.1236 8.11719 15.5708 8.56285 15.5726 9.11381L15.5834 12.2965C15.5834 14.3861 13.8834 16.0861 11.7938 16.0861H5.20633C3.11675 16.0861 1.41675 14.3861 1.41675 12.2965V9.11736C1.41675 8.56508 1.86446 8.11737 2.41673 8.11736L14.5726 8.1172Z" fill="#AEB0C2"/>
</svg>
