<svg width="15" height="16" viewBox="0 0 15 16" fill="none" xmlns="http://www.w3.org/2000/svg">
<path d="M12.7958 5.08467C13.2784 5.58102 12.8143 6.28125 12.122 6.28125H2.25C1.69771 6.28125 1.25 5.83353 1.25 5.28125V4.5125C1.25 2.9875 2.4875 1.75 4.0125 1.75H5.4625C6.48125 1.75 6.8 2.08125 7.20625 2.625L8.08125 3.7875C8.275 4.04375 8.3 4.075 8.6625 4.075H10.4063C11.3428 4.075 12.1899 4.4616 12.7958 5.08467Z" fill="#AEB0C2"/>
<path d="M12.7409 7.21876C13.2918 7.21876 13.739 7.66441 13.7409 8.21537L13.75 10.9064C13.75 12.7502 12.25 14.2502 10.4062 14.2502H4.59375C2.75 14.2502 1.25 12.7502 1.25 10.9064V8.2189C1.25 7.66662 1.69771 7.21891 2.24999 7.2189L12.7409 7.21876Z" fill="#AEB0C2"/>
</svg>
