<svg width="12" height="4" viewBox="0 0 12 4" fill="none" xmlns="http://www.w3.org/2000/svg">
<path d="M1.25 3.25C1.94036 3.25 2.5 2.69036 2.5 2C2.5 1.30964 1.94036 0.75 1.25 0.75C0.559644 0.75 0 1.30964 0 2C0 2.69036 0.559644 3.25 1.25 3.25Z" fill="#08135E"/>
<path d="M5.75 3.25C6.44036 3.25 7 2.69036 7 2C7 1.30964 6.44036 0.75 5.75 0.75C5.05964 0.75 4.5 1.30964 4.5 2C4.5 2.69036 5.05964 3.25 5.75 3.25Z" fill="#08135E"/>
<path d="M10.25 3.25C10.9404 3.25 11.5 2.69036 11.5 2C11.5 1.30964 10.9404 0.75 10.25 0.75C9.55964 0.75 9 1.30964 9 2C9 2.69036 9.55964 3.25 10.25 3.25Z" fill="#08135E"/>
</svg>
