<svg width="17" height="18" viewBox="0 0 17 18" fill="none" xmlns="http://www.w3.org/2000/svg">
<path d="M1.82757 13.965L1.8134 13.9792C1.62215 13.5613 1.50173 13.0867 1.45215 12.5625C1.50173 13.0796 1.63632 13.5471 1.82757 13.965Z" fill="#AEB0C2"/>
<path d="M6.37504 7.85604C7.3061 7.85604 8.06088 7.10127 8.06088 6.17021C8.06088 5.23915 7.3061 4.48438 6.37504 4.48438C5.44398 4.48438 4.68921 5.23915 4.68921 6.17021C4.68921 7.10127 5.44398 7.85604 6.37504 7.85604Z" fill="#AEB0C2"/>
<path d="M11.468 1.91406H5.53216C2.95383 1.91406 1.41675 3.45115 1.41675 6.02948V11.9653C1.41675 12.7374 1.55133 13.4103 1.81341 13.977C2.42258 15.3228 3.72591 16.0807 5.53216 16.0807H11.468C14.0463 16.0807 15.5834 14.5436 15.5834 11.9653V10.3432V6.02948C15.5834 3.45115 14.0463 1.91406 11.468 1.91406ZM14.4288 9.35156C13.8763 8.87698 12.9838 8.87698 12.4313 9.35156L9.48466 11.8803C8.93216 12.3549 8.03966 12.3549 7.48716 11.8803L7.24633 11.682C6.74341 11.2428 5.943 11.2003 5.37633 11.5828L2.72716 13.3607C2.57133 12.9641 2.47925 12.5036 2.47925 11.9653V6.02948C2.47925 4.03198 3.53466 2.97656 5.53216 2.97656H11.468C13.4655 2.97656 14.5209 4.03198 14.5209 6.02948V9.42948L14.4288 9.35156Z" fill="#AEB0C2"/>
</svg>
