<svg width="18" height="18" viewBox="0 0 18 18" fill="none" xmlns="http://www.w3.org/2000/svg">
<path d="M1.93498 14.2584L1.91998 14.2734C1.71748 13.8309 1.58998 13.3284 1.53748 12.7734C1.58998 13.3209 1.73248 13.8159 1.93498 14.2584Z" fill="#08135E"/>
<path d="M6.74997 7.78484C7.73579 7.78484 8.53497 6.98567 8.53497 5.99984C8.53497 5.01402 7.73579 4.21484 6.74997 4.21484C5.76414 4.21484 4.96497 5.01402 4.96497 5.99984C4.96497 6.98567 5.76414 7.78484 6.74997 7.78484Z" fill="#08135E"/>
<path d="M12.1425 1.5H5.8575C3.1275 1.5 1.5 3.1275 1.5 5.8575V12.1425C1.5 12.96 1.6425 13.6725 1.92 14.2725C2.565 15.6975 3.945 16.5 5.8575 16.5H12.1425C14.8725 16.5 16.5 14.8725 16.5 12.1425V10.425V5.8575C16.5 3.1275 14.8725 1.5 12.1425 1.5ZM15.2775 9.375C14.6925 8.8725 13.7475 8.8725 13.1625 9.375L10.0425 12.0525C9.4575 12.555 8.5125 12.555 7.9275 12.0525L7.6725 11.8425C7.14 11.3775 6.2925 11.3325 5.6925 11.7375L2.8875 13.62C2.7225 13.2 2.625 12.7125 2.625 12.1425V5.8575C2.625 3.7425 3.7425 2.625 5.8575 2.625H12.1425C14.2575 2.625 15.375 3.7425 15.375 5.8575V9.4575L15.2775 9.375Z" fill="#08135E"/>
</svg>
