<svg width="18" height="18" viewBox="0 0 18 18" fill="none" xmlns="http://www.w3.org/2000/svg">
<path d="M15.1575 5.86312L9.38254 9.20813C9.15004 9.34313 8.85754 9.34313 8.61754 9.20813L2.84254 5.86312C2.43004 5.62313 2.32504 5.06063 2.64004 4.70813C2.85754 4.46063 3.10504 4.25812 3.36754 4.11562L7.43254 1.86562C8.30254 1.37813 9.71254 1.37813 10.5825 1.86562L14.6475 4.11562C14.91 4.25812 15.1575 4.46813 15.375 4.70813C15.675 5.06063 15.57 5.62313 15.1575 5.86312Z" fill="#08135E"/>
<path d="M8.57249 10.6032V15.7182C8.57249 16.2882 7.99498 16.6632 7.48498 16.4157C5.93998 15.6582 3.33749 14.2407 3.33749 14.2407C2.42249 13.7232 1.67249 12.4182 1.67249 11.3457V7.4757C1.67249 6.8832 2.29499 6.5082 2.80499 6.8007L8.19749 9.9282C8.42249 10.0707 8.57249 10.3257 8.57249 10.6032Z" fill="#08135E"/>
<path d="M9.42749 10.6032V15.7182C9.42749 16.2882 10.005 16.6632 10.515 16.4157C12.06 15.6582 14.6625 14.2407 14.6625 14.2407C15.5775 13.7232 16.3275 12.4182 16.3275 11.3457V7.4757C16.3275 6.8832 15.705 6.5082 15.195 6.8007L9.80249 9.9282C9.57749 10.0707 9.42749 10.3257 9.42749 10.6032Z" fill="#08135E"/>
</svg>
