<svg width="17" height="18" viewBox="0 0 17 18" fill="none" xmlns="http://www.w3.org/2000/svg">
<path d="M14.3153 6.0426L8.86116 9.20177C8.64157 9.32927 8.36532 9.32927 8.13866 9.20177L2.68449 6.0426C2.29491 5.81594 2.19574 5.28469 2.49324 4.95177C2.69866 4.71802 2.93241 4.52677 3.18032 4.39219L7.01949 2.26719C7.84116 1.80677 9.17282 1.80677 9.99449 2.26719L13.8337 4.39219C14.0816 4.52677 14.3153 4.7251 14.5207 4.95177C14.8041 5.28469 14.7049 5.81594 14.3153 6.0426Z" fill="#AEB0C2"/>
<path d="M8.09626 10.5152V15.3461C8.09626 15.8844 7.55084 16.2386 7.06917 16.0048C5.61001 15.2894 3.15209 13.9506 3.15209 13.9506C2.28792 13.4619 1.57959 12.2294 1.57959 11.2165V7.56147C1.57959 7.00189 2.16751 6.64772 2.64917 6.92397L7.74209 9.87772C7.95459 10.0123 8.09626 10.2531 8.09626 10.5152Z" fill="#AEB0C2"/>
<path d="M8.90381 10.5152V15.3461C8.90381 15.8844 9.44923 16.2386 9.93089 16.0048C11.3901 15.2894 13.848 13.9506 13.848 13.9506C14.7121 13.4619 15.4205 12.2294 15.4205 11.2165V7.56147C15.4205 7.00189 14.8326 6.64772 14.3509 6.92397L9.25798 9.87772C9.04548 10.0123 8.90381 10.2531 8.90381 10.5152Z" fill="#AEB0C2"/>
</svg>
