<svg width="4" height="6" viewBox="0 0 4 6" fill="none" xmlns="http://www.w3.org/2000/svg">
<path d="M3.67677 2.82322L1.17677 0.323215C1.14181 0.288254 1.09726 0.264446 1.04877 0.254802C1.00027 0.245158 0.950006 0.25011 0.904325 0.269033C0.858644 0.287956 0.819601 0.32 0.792131 0.361112C0.764662 0.402224 0.75 0.450559 0.75 0.500004V5.5C0.750001 5.54945 0.764663 5.59778 0.792133 5.63889C0.819603 5.68001 0.858646 5.71205 0.904326 5.73097C0.950007 5.74989 1.00027 5.75485 1.04877 5.7452C1.09726 5.73556 1.14181 5.71175 1.17677 5.67679L3.67677 3.17679C3.69999 3.15358 3.71841 3.12602 3.73097 3.09568C3.74354 3.06535 3.75 3.03284 3.75 3C3.75 2.96717 3.74354 2.93466 3.73097 2.90433C3.71841 2.87399 3.69999 2.84643 3.67677 2.82322Z" fill="#AEB0C2"/>
</svg>
