<svg width="16" height="16" viewBox="0 0 16 16" fill="none" xmlns="http://www.w3.org/2000/svg">
<path d="M15.2946 14.3007L12.1581 11.1717C13.2103 9.86463 13.7217 8.20365 13.5869 6.53071C13.4521 4.85777 12.6813 3.30023 11.4333 2.17879C10.1853 1.05734 8.55509 0.457352 6.87829 0.502361C5.20148 0.54737 3.60575 1.23395 2.41964 2.42073C1.23353 3.60752 0.547343 5.20416 0.50236 6.88193C0.457376 8.55969 1.05702 10.1908 2.17783 11.4396C3.29864 12.6883 4.85529 13.4595 6.52727 13.5944C8.19925 13.7293 9.85929 13.2176 11.1656 12.1647L14.2928 15.2937C14.4261 15.4259 14.6061 15.5 14.7937 15.5C14.9813 15.5 15.1614 15.4259 15.2946 15.2937C15.4261 15.162 15.5 14.9834 15.5 14.7972C15.5 14.611 15.4261 14.4324 15.2946 14.3007ZM1.91501 7.059C1.91501 6.03992 2.21703 5.04373 2.78288 4.1964C3.34872 3.34906 4.15298 2.68865 5.09395 2.29867C6.03492 1.90868 7.07033 1.80664 8.06926 2.00546C9.06819 2.20427 9.98576 2.695 10.7059 3.4156C11.4261 4.13619 11.9166 5.05429 12.1153 6.05379C12.314 7.05328 12.212 8.08929 11.8222 9.03079C11.4325 9.9723 10.7724 10.777 9.92559 11.3432C9.07874 11.9094 8.08312 12.2115 7.06462 12.2115C5.69886 12.2115 4.38904 11.6687 3.4233 10.7024C2.45756 9.73611 1.91501 8.42554 1.91501 7.059Z" fill="#AEB0C2"/>
</svg>
