<svg width="17" height="18" viewBox="0 0 17 18" fill="none" xmlns="http://www.w3.org/2000/svg">
<path d="M11.468 1.91406H5.53217C2.95383 1.91406 1.41675 3.45115 1.41675 6.02948V11.9582C1.41675 14.5436 2.95383 16.0807 5.53217 16.0807H11.4609C14.0392 16.0807 15.5763 14.5436 15.5763 11.9653V6.02948C15.5834 3.45115 14.0463 1.91406 11.468 1.91406ZM10.3842 10.2228L9.47758 10.747L8.57092 11.2711C7.40217 11.9441 6.44592 11.3916 6.44592 10.0457V8.9974V7.94906C6.44592 6.59615 7.40217 6.05073 8.57092 6.72365L9.47758 7.24781L10.3842 7.77198C11.553 8.4449 11.553 9.5499 10.3842 10.2228Z" fill="#AEB0C2"/>
</svg>
