<svg width="16" height="16" viewBox="0 0 16 16" fill="none" xmlns="http://www.w3.org/2000/svg">
<path d="M11.1425 0.5H4.8575C2.1275 0.5 0.5 2.1275 0.5 4.8575V11.135C0.5 13.8725 2.1275 15.5 4.8575 15.5H11.135C13.865 15.5 15.4925 13.8725 15.4925 11.1425V4.8575C15.5 2.1275 13.8725 0.5 11.1425 0.5ZM9.995 9.2975L9.035 9.8525L8.075 10.4075C6.8375 11.12 5.825 10.535 5.825 9.11V8V6.89C5.825 5.4575 6.8375 4.88 8.075 5.5925L9.035 6.1475L9.995 6.7025C11.2325 7.415 11.2325 8.585 9.995 9.2975Z" fill="#08135E"/>
</svg>
