<svg width="17" height="18" viewBox="0 0 17 18" fill="none" xmlns="http://www.w3.org/2000/svg">
<path d="M16.9492 13.4175L14.8373 5.23896C14.6557 4.53594 14.0275 4.03721 13.2821 3.97604L13.2696 3.7434C13.2208 2.82292 12.4063 2.1046 11.4214 2.1538L9.19449 2.26028L9.18139 2.06997C9.11941 1.14843 8.29066 0.448109 7.31295 0.503021C6.84312 0.53136 6.41209 0.730564 6.10191 1.06683C5.7916 1.40204 5.63559 1.83342 5.66477 2.28009C5.66839 2.33155 5.68149 2.38028 5.6982 2.42724L1.67363 2.61862C0.703077 2.66498 -0.0465048 3.45362 0.00224981 4.37577L0.491041 13.6443C0.514862 14.091 0.720277 14.5025 1.06862 14.802C1.39314 15.0805 1.81294 15.2356 2.25048 15.2356C2.27967 15.2356 2.30948 15.2344 2.33804 15.2334L4.63988 15.123L4.92449 16.224C5.11806 16.9746 5.82123 17.5 6.63454 17.5C6.7751 17.5 6.91741 17.4836 7.05548 17.4513L15.657 15.4433C16.6008 15.2235 17.1803 14.3144 16.9492 13.4178L16.9492 13.4175ZM6.83657 2.20984C6.82584 2.06091 6.8776 1.9172 6.98187 1.80621C7.08551 1.69416 7.22832 1.62729 7.3856 1.61827C7.71724 1.60013 7.98937 1.83277 8.00894 2.14023L8.02079 2.31631L6.81923 2.37393C6.83357 2.32129 6.84068 2.26639 6.83656 2.20983L6.83657 2.20984ZM2.27976 14.0868H2.25057C2.10465 14.0868 1.96472 14.0511 1.85645 13.9583C1.74096 13.8575 1.67187 13.7285 1.66413 13.5801L1.17525 4.31582C1.15978 4.00848 1.40922 3.7481 1.73262 3.73219L8.0953 3.43042L8.23162 5.48247C8.24172 5.63188 8.18996 5.7763 8.08632 5.88777C7.98267 5.99876 7.83924 6.06611 7.68146 6.07571C7.52781 6.08472 7.37366 6.0367 7.25691 5.93757C7.13968 5.83904 7.06933 5.70268 7.05923 5.55316C7.0384 5.24581 6.76863 5.01542 6.43589 5.03072C6.11262 5.04993 5.86728 5.31541 5.88638 5.62288C5.91618 6.06955 6.12634 6.47874 6.47941 6.77376C6.80393 7.04601 7.21303 7.19269 7.64167 7.19269C7.67921 7.19269 7.71675 7.1915 7.75417 7.18925C8.22399 7.1615 8.65502 6.96171 8.96581 6.62544C9.27599 6.28916 9.43088 5.85897 9.4017 5.41291L9.2665 3.37391L11.5101 3.26743C11.8215 3.26743 12.08 3.50007 12.0948 3.79782L12.5836 13.0658C12.5997 13.3731 12.3502 13.6206 12.0262 13.6364L2.27976 14.0868ZM15.3777 14.3586L6.77527 16.3665C6.46035 16.4384 6.14168 16.2516 6.06611 15.9572L5.83562 15.065L12.0875 14.7679C13.0575 14.7215 13.8076 13.9329 13.7589 13.0107L13.3421 5.12118C13.5129 5.18628 13.6505 5.32442 13.6969 5.50381L15.8089 13.682C15.8857 13.9826 15.6921 14.2855 15.3777 14.3585L15.3777 14.3586Z" fill="#AEB0C2"/>
</svg>
