<svg width="21" height="22" viewBox="0 0 21 22" fill="none" xmlns="http://www.w3.org/2000/svg">
<path d="M20.9373 16.7167L18.3285 6.13277C18.1041 5.22298 17.3281 4.57756 16.4073 4.49841L16.3919 4.19734C16.3316 3.00613 15.3254 2.07654 14.1087 2.14022L11.3579 2.27801L11.3417 2.03173C11.2651 0.839141 10.2414 -0.0671536 9.03364 0.00390903C8.45327 0.0405831 7.92082 0.298377 7.53765 0.733548C7.15433 1.16735 6.96161 1.7256 6.99766 2.30364C7.00213 2.37024 7.01831 2.43331 7.03895 2.49408L2.06743 2.74174C0.868506 2.80174 -0.057447 3.82233 0.00277917 5.01571L0.606579 17.0103C0.636006 17.5884 0.889753 18.1209 1.32007 18.5085C1.72094 18.8689 2.23951 19.0696 2.78001 19.0696C2.81606 19.0696 2.85288 19.0681 2.88816 19.0667L5.73161 18.9238L6.08319 20.3487C6.3223 21.3201 7.19093 22 8.19561 22C8.36924 22 8.54503 21.9788 8.7156 21.9369L19.341 19.3384C20.5069 19.054 21.2227 17.8775 20.9373 16.7171L20.9373 16.7167ZM8.44517 2.21274C8.43192 2.02001 8.49586 1.83403 8.62466 1.69039C8.75269 1.54538 8.9291 1.45884 9.12339 1.44718C9.53306 1.4237 9.86922 1.72476 9.89339 2.12264L9.90803 2.35052L8.42375 2.42509C8.44147 2.35696 8.45025 2.28591 8.44517 2.21272L8.44517 2.21274ZM2.81617 17.5829H2.78012C2.59986 17.5829 2.427 17.5367 2.29326 17.4166C2.1506 17.2862 2.06525 17.1192 2.05569 16.9272L1.45177 4.93812C1.43267 4.54039 1.7408 4.20342 2.14029 4.18283L10.0001 3.79231L10.1685 6.44791C10.1809 6.64125 10.117 6.82815 9.98898 6.97241C9.86095 7.11604 9.68377 7.2032 9.48887 7.21563C9.29906 7.22729 9.10863 7.16514 8.96442 7.03686C8.8196 6.90934 8.73271 6.73287 8.72023 6.53938C8.6945 6.14164 8.36125 5.84348 7.95022 5.86328C7.55088 5.88814 7.24782 6.23171 7.27141 6.62961C7.30823 7.20766 7.56783 7.73719 8.00398 8.11898C8.40486 8.4713 8.91021 8.66112 9.43971 8.66112C9.48608 8.66112 9.53246 8.65959 9.57867 8.65667C10.159 8.62077 10.6915 8.36221 11.0754 7.92703C11.4586 7.49186 11.6499 6.93514 11.6139 6.35788L11.4469 3.71917L14.2184 3.58138C14.6031 3.58138 14.9223 3.88245 14.9406 4.26777L15.5444 16.2616C15.5643 16.6593 15.2561 16.9796 14.8559 17L2.81617 17.5829ZM18.996 17.9346L8.36945 20.5331C7.98043 20.6261 7.58678 20.3844 7.49343 20.0034L7.20871 18.8489L14.9316 18.4643C16.1298 18.4043 17.0565 17.3837 16.9963 16.1904L16.4814 5.98035C16.6924 6.0646 16.8624 6.24336 16.9197 6.47551L19.5286 17.0591C19.6235 17.4481 19.3844 17.84 18.996 17.9345L18.996 17.9346Z" fill="#08135E"/>
</svg>
