<svg width="16" height="17" viewBox="0 0 16 17" fill="none" xmlns="http://www.w3.org/2000/svg">
<path d="M15.11 8.00012C16.29 5.09012 14.73 1.75012 11.64 0.830117C11.16 0.690117 10.68 0.620117 10.2 0.620117C7.99997 0.620117 5.92997 2.05012 5.05997 4.19012L3.82997 7.24012C3.68997 7.59012 3.46997 7.90012 3.19997 8.16012L0.0899658 11.0501L5.13997 13.0901C5.03997 13.2301 4.93997 13.3801 4.87997 13.5401C4.45997 14.5901 4.95997 15.7801 6.00997 16.2001C7.04997 16.6201 8.23997 16.1201 8.65996 15.0701C8.72997 14.9001 8.75996 14.7301 8.78996 14.5601L13.84 16.6001L13.61 12.3601C13.59 11.9801 13.65 11.6101 13.79 11.2601L15.11 8.00012ZM12.4 10.7001C12.18 11.2501 12.08 11.8501 12.11 12.4401L12.21 14.3201L7.76997 12.5301C7.68997 12.4901 7.61997 12.4401 7.52996 12.4101C7.43996 12.3801 7.35997 12.3601 7.26997 12.3401L2.83997 10.5401L4.21996 9.26012C4.64997 8.86012 4.99997 8.35012 5.21996 7.81012L6.44997 4.76012C7.08996 3.18012 8.58996 2.12012 10.2 2.12012C10.54 2.12012 10.89 2.17012 11.22 2.27012C12.29 2.59012 13.14 3.31012 13.62 4.30012C14.09 5.28012 14.13 6.42012 13.72 7.43012L12.4 10.7001Z" fill="#08135E"/>
</svg>
