<svg width="16" height="16" viewBox="0 0 16 16" fill="none" xmlns="http://www.w3.org/2000/svg">
<path d="M14 1.33337L13.3333 2.00004M2 1.33337L2.66667 2.00004M14 10.6667L13.3333 10M2 10.6667L2.66667 10M6 12H10M6.66667 14H9.33333M8 2.00004C5.33333 2.00004 3.968 3.30004 4 5.33337C4.01533 6.32471 4.33333 7.00004 5 7.66671C5.66667 8.33337 6 8.66671 6 10H10C10 8.66671 10.3333 8.33337 11 7.66671C11.6667 7.00004 11.9847 6.32471 12 5.33337C12.032 3.30004 10.6667 2.00004 8 2.00004Z" stroke="white" stroke-width="1.2" stroke-linecap="round" stroke-linejoin="round"/>
</svg>
