<svg width="14" height="15" viewBox="0 0 14 15" fill="none" xmlns="http://www.w3.org/2000/svg">
<path d="M13 1.3335L12.3333 2.00016M1 1.3335L1.66667 2.00016M13 10.6668L12.3333 10.0002M1 10.6668L1.66667 10.0002M5 12.0002H9M5.66667 14.0002H8.33333M7 2.00016C4.33333 2.00016 2.968 3.30016 3 5.3335C3.01533 6.32483 3.33333 7.00016 4 7.66683C4.66667 8.3335 5 8.66683 5 10.0002H9C9 8.66683 9.33333 8.3335 10 7.66683C10.6667 7.00016 10.9847 6.32483 11 5.3335C11.032 3.30016 9.66667 2.00016 7 2.00016Z" stroke="#AEB0C2" stroke-width="1.2" stroke-linecap="round" stroke-linejoin="round"/>
</svg>
