<svg width="14" height="12" viewBox="0 0 14 12" fill="none" xmlns="http://www.w3.org/2000/svg">
<path d="M2.53577 3.93237H1.31064C1.14144 3.93237 1.00439 4.05806 1.00439 4.21323C1.00439 4.3683 1.14144 4.49408 1.31064 4.49408H2.53577C2.70487 4.49408 2.84202 4.36829 2.84202 4.21323C2.84202 4.05805 2.70487 3.93237 2.53577 3.93237Z" fill="#08135E"/>
<path d="M1.92308 5.89841C1.92308 5.82396 1.89082 5.75245 1.83335 5.69984C1.77599 5.64714 1.69801 5.61755 1.61683 5.61755H0.391698C0.222601 5.61755 0.0854492 5.74324 0.0854492 5.89841C0.0854492 6.05357 0.222606 6.17926 0.391698 6.17926H1.61683C1.69801 6.17926 1.77599 6.14967 1.83335 6.09697C1.89083 6.04436 1.92308 5.97285 1.92308 5.8984V5.89841Z" fill="#08135E"/>
<path d="M2.53577 7.30286H1.31064C1.14144 7.30286 1.00439 7.42864 1.00439 7.58371C1.00439 7.73888 1.14144 7.86456 1.31064 7.86456H2.53577C2.70487 7.86456 2.84202 7.73888 2.84202 7.58371C2.84202 7.42863 2.70487 7.30286 2.53577 7.30286Z" fill="#08135E"/>
<path d="M13.7775 2.61067L11.021 0.0827784V0.0828765C10.9639 0.030074 10.8862 0.000293417 10.8051 0H6.21099C5.96733 0 5.73361 0.0887548 5.56131 0.246766C5.389 0.404779 5.29212 0.619129 5.29212 0.842577V1.40428L4.67962 1.40438C4.43596 1.40438 4.20224 1.49313 4.02993 1.65115C3.85763 1.80916 3.76074 2.02351 3.76074 2.24696V10.9542C3.76074 11.1776 3.85763 11.3919 4.02993 11.55C4.20223 11.708 4.43597 11.7967 4.67962 11.7967H11.4177C11.6615 11.7967 11.8952 11.708 12.0675 11.55C12.2398 11.392 12.3366 11.1776 12.3366 10.9542V10.3924H12.9491C13.1928 10.3924 13.4265 10.3036 13.5989 10.1456C13.7712 9.98757 13.8679 9.77322 13.8679 9.54978V2.80872C13.8676 2.73436 13.8351 2.66314 13.7776 2.61064L13.7775 2.61067ZM11.1114 0.959141L12.822 2.52792H11.4176C11.2485 2.52792 11.1114 2.40213 11.1114 2.24696L11.1114 0.959141ZM11.724 10.9541C11.724 11.0286 11.6917 11.1 11.6342 11.1527C11.5768 11.2054 11.4989 11.235 11.4176 11.235H4.67954C4.51034 11.235 4.37329 11.1092 4.37329 10.9541V2.24692C4.37329 2.09184 4.51034 1.96607 4.67954 1.96607H5.29204V9.54976C5.29204 9.77321 5.38893 9.98755 5.56123 10.1456C5.73353 10.3036 5.96726 10.3923 6.21092 10.3923H11.7239L11.724 10.9541ZM13.2554 9.54973C13.2554 9.62418 13.2231 9.69559 13.1656 9.7483C13.1082 9.801 13.0303 9.83058 12.949 9.83058H6.21092C6.04172 9.83058 5.90467 9.7048 5.90467 9.54973V0.842532C5.90467 0.687457 6.04172 0.561679 6.21092 0.561679H10.4988V2.24692C10.4988 2.47047 10.5956 2.68481 10.7679 2.84283C10.9402 3.00084 11.1739 3.0896 11.4176 3.0896H13.2553L13.2554 9.54973Z" fill="#08135E"/>
<path d="M6.82324 4.21322C6.82324 4.28767 6.8555 4.35918 6.91297 4.41179C6.97044 4.4645 7.04831 4.49408 7.1296 4.49408H12.03C12.1991 4.49408 12.3363 4.36829 12.3363 4.21323C12.3363 4.05805 12.1991 3.93237 12.03 3.93237H7.1296C6.9604 3.93237 6.82324 4.05806 6.82324 4.21323L6.82324 4.21322Z" fill="#08135E"/>
<path d="M12.03 5.33667H7.1296C6.9604 5.33667 6.82324 5.46236 6.82324 5.61752C6.82324 5.7726 6.9604 5.89837 7.1296 5.89837H12.03C12.1991 5.89837 12.3363 5.77259 12.3363 5.61752C12.3363 5.46235 12.1991 5.33667 12.03 5.33667Z" fill="#08135E"/>
<path d="M12.0299 6.74109H9.57969C9.41059 6.74109 9.27344 6.86677 9.27344 7.02194C9.27344 7.17702 9.41059 7.30279 9.57969 7.30279H12.0299C12.199 7.30279 12.3362 7.17701 12.3362 7.02194C12.3362 6.86677 12.199 6.74109 12.0299 6.74109Z" fill="#08135E"/>
</svg>
