<svg width="51" height="44" viewBox="0 0 51 44" fill="none" xmlns="http://www.w3.org/2000/svg">
<path d="M50.9861 35.8934C50.9849 35.886 50.9883 35.8791 50.9866 35.8717L50.9786 35.8224C50.9603 35.2199 50.8557 34.6438 50.6968 34.0871L46.0384 5.38294C45.5331 2.26343 42.8767 0 39.7235 0L11.2775 0.000572712C8.12364 0.000572712 5.46723 2.26401 4.96191 5.38352L0.303548 34.0877C0.145206 34.6443 0.0400155 35.2205 0.0217227 35.823L0.0137196 35.8722C0.0125764 35.8797 0.0154346 35.8866 0.0142912 35.894C0.013148 35.9421 0 35.9874 0 36.036C0 39.9797 3.20299 43.1892 7.13989 43.1892H43.8601C47.797 43.1892 51 39.9797 51 36.036C51.0005 35.9868 50.9874 35.9415 50.9863 35.8934H50.9861ZM6.97509 5.71141C7.32036 3.58668 9.12968 2.04489 11.2778 2.04489H39.7238C41.8716 2.04489 43.6802 3.58668 44.0256 5.71141L48.0059 30.2356C46.8346 29.3925 45.4095 28.8828 43.8604 28.8828H7.14016C5.59098 28.8828 4.1659 29.3925 2.99458 30.2356L6.97509 5.71141ZM43.8606 41.1451H7.14045C4.34561 41.1451 2.07335 38.8795 2.0454 36.0858L2.30378 34.4931C2.96118 32.433 4.86872 30.9263 7.14054 30.9263H43.8607C46.1324 30.9263 48.0395 32.4324 48.6975 34.4931L48.9559 36.0858C48.9284 38.8795 46.6561 41.1451 43.8614 41.1451H43.8606Z" fill="#08135E"/>
<path d="M28.835 34.9189H9.30056C8.73184 34.9189 8.27051 35.33 8.27051 35.8379C8.27051 36.3457 8.73184 36.7568 9.30056 36.7568H28.835C29.4038 36.7568 29.8651 36.3457 29.8651 35.8379C29.8651 35.33 29.4038 34.9189 28.835 34.9189Z" fill="#08135E"/>
<path d="M41.7266 34.9189H39.1385C38.5846 34.9189 38.1353 35.33 38.1353 35.8379C38.1353 36.3457 38.5846 36.7568 39.1385 36.7568H41.7266C42.2805 36.7568 42.7298 36.3457 42.7298 35.8379C42.7298 35.33 42.2805 34.9189 41.7266 34.9189Z" fill="#08135E"/>
</svg>
