<svg width="40" height="39" viewBox="0 0 40 39" fill="none" xmlns="http://www.w3.org/2000/svg">
<g clip-path="url(#clip0_9308_374)">
<path d="M22.0381 7.40749L22.1795 7.53125H22.3674H31.7305C33.0161 7.53125 34.2466 8.029 35.1519 8.91104C36.0567 9.79264 36.5625 10.9855 36.5625 12.2266V30.9297C36.5625 32.1707 36.0567 33.3636 35.1519 34.2452C34.2466 35.1272 33.0161 35.625 31.7305 35.625H8.26953C6.98387 35.625 5.75339 35.1272 4.84815 34.2452C3.94335 33.3636 3.4375 32.1707 3.4375 30.9297V8.07031C3.4375 6.82929 3.94335 5.63639 4.84815 4.75479C5.75339 3.87275 6.98387 3.375 8.26953 3.375H16.3301C17.0461 3.3795 17.7336 3.63964 18.2629 4.10318L18.263 4.10327L22.0381 7.40749ZM16.79 5.61698L16.6483 5.49219H16.4595H16.3316H8.26953C7.5754 5.49219 6.90716 5.76074 6.41247 6.24274C5.91735 6.72517 5.63672 7.3823 5.63672 8.07031V30.9297C5.63672 31.6177 5.91735 32.2748 6.41247 32.7573C6.90716 33.2393 7.5754 33.5078 8.26953 33.5078H31.7305C32.4246 33.5078 33.0928 33.2393 33.5875 32.7573C34.0824 32.2751 34.363 31.6184 34.3633 30.9308C34.3633 30.9304 34.3633 30.93 34.3633 30.9297L34.4486 12.1873V12.185C34.4486 11.497 34.168 10.8399 33.6728 10.3574C33.1782 9.87543 32.5099 9.60687 31.8158 9.60687H21.3373L20.563 8.94016L16.79 5.61698Z" fill="#08135E" stroke="#08135E"/>
<path d="M22.4741 22.1171H14.3789V21.039H22.4741H23.5494L22.8565 20.2168L19.3694 16.0789L20.2507 15.3743L25.468 21.5979L20.2518 27.7828L19.3694 27.0773L22.8565 22.9394L23.5494 22.1171H22.4741Z" fill="white" stroke="#08135E"/>
</g>
<defs>
<clipPath id="clip0_9308_374">
<rect width="34.125" height="33.25" fill="white" transform="translate(2.9375 2.875)"/>
</clipPath>
</defs>
</svg>
