<svg width="11" height="15" viewBox="0 0 11 15" fill="none" xmlns="http://www.w3.org/2000/svg">
<path fill-rule="evenodd" clip-rule="evenodd" d="M7.20084 0.000192873C7.61701 0.000192873 8.01624 0.157766 8.31088 0.438395L10.5387 2.56056C10.834 2.84206 11 3.22402 11 3.62239V3.75009H7.8572C7.42325 3.75009 7.07154 3.41436 7.07154 3.00013V0.000183309L7.20084 0.000192873ZM5.89297 11.2502H1.9643C1.7474 11.2502 1.5714 11.418 1.5714 11.6251C1.5714 11.8322 1.7474 12.0001 1.9643 12.0001H5.89297C6.10987 12.0001 6.28573 11.8322 6.28573 11.6251C6.28573 11.418 6.10987 11.2502 5.89297 11.2502ZM9.03577 9.00017H1.96437C1.74746 9.00017 1.57147 9.16804 1.57147 9.37508C1.57147 9.58225 1.74746 9.75012 1.96437 9.75012H9.03577C9.25267 9.75012 9.42867 9.58225 9.42867 9.37508C9.42867 9.16804 9.25267 9.00017 9.03577 9.00017ZM9.03577 6.75017H1.96437C1.74746 6.75017 1.57147 6.91805 1.57147 7.12509C1.57147 7.33226 1.74746 7.50013 1.96437 7.50013H9.03577C9.25267 7.50013 9.42867 7.33226 9.42867 7.12509C9.42867 6.91804 9.25267 6.75017 9.03577 6.75017ZM6.28573 3.00008C6.28573 3.82849 6.98934 4.50012 7.8572 4.50012H11V13.5001C11 14.3285 10.2965 15 9.42867 15H1.57133C0.70347 15 0 14.3285 0 13.5001V1.49991C0 0.671494 0.70347 0 1.57133 0H6.2856L6.28573 3.00008Z" fill="white"/>
</svg>
