<svg width="14" height="14" viewBox="0 0 14 14" fill="none" xmlns="http://www.w3.org/2000/svg">
<path d="M1 0.956882C1 0.703101 1.10081 0.459715 1.28026 0.280264C1.45971 0.100814 1.7031 0 1.95688 0H6.34514C6.59891 5.41953e-05 6.84225 0.100904 7.02166 0.280367L13.7198 6.97854C13.8992 7.15799 14 7.40133 14 7.65506C14 7.90879 13.8992 8.15213 13.7198 8.33157L9.33157 12.7198C9.15213 12.8992 8.90879 13 8.65506 13C8.40133 13 8.15799 12.8992 7.97854 12.7198L1.28037 6.02166C1.1009 5.84225 1.00005 5.59891 1 5.34514V0.956882ZM4.34909 4.78441C4.72976 4.78441 5.09484 4.63319 5.36402 4.36402C5.63319 4.09484 5.78441 3.72976 5.78441 3.34909C5.78441 2.96842 5.63319 2.60334 5.36402 2.33416C5.09484 2.06499 4.72976 1.91376 4.34909 1.91376C3.96842 1.91376 3.60334 2.06499 3.33416 2.33416C3.06499 2.60334 2.91376 2.96842 2.91376 3.34909C2.91376 3.72976 3.06499 4.09484 3.33416 4.36402C3.60334 4.63319 3.96842 4.78441 4.34909 4.78441Z" fill="#08135E"/>
<path d="M1.18217 6.54322C1.0107 6.36381 0.914338 6.12046 0.914286 5.8667V1C0.671802 1 0.43925 1.10081 0.267788 1.28026C0.0963263 1.45971 0 1.7031 0 1.95688L0 6.34514C5.17828e-05 6.59891 0.096412 6.84225 0.267886 7.02166L6.66789 13.7198C6.83934 13.8992 7.07185 14 7.31429 14C7.55672 14 7.78923 13.8992 7.96069 13.7198L8 13.6787L1.18217 6.54322Z" fill="#08135E"/>
</svg>
