<svg width="15" height="14" viewBox="0 0 15 14" fill="none" xmlns="http://www.w3.org/2000/svg">
<path d="M2 0.956882C2 0.703101 2.10081 0.459715 2.28026 0.280264C2.45971 0.100814 2.7031 0 2.95688 0H7.34514C7.59891 5.41953e-05 7.84225 0.100904 8.02166 0.280367L14.7198 6.97854C14.8992 7.15799 15 7.40133 15 7.65506C15 7.90879 14.8992 8.15213 14.7198 8.33157L10.3316 12.7198C10.1521 12.8992 9.90879 13 9.65506 13C9.40133 13 9.15799 12.8992 8.97854 12.7198L2.28037 6.02166C2.1009 5.84225 2.00005 5.59891 2 5.34514V0.956882ZM5.34909 4.78441C5.72976 4.78441 6.09484 4.63319 6.36402 4.36402C6.63319 4.09484 6.78441 3.72976 6.78441 3.34909C6.78441 2.96842 6.63319 2.60334 6.36402 2.33416C6.09484 2.06499 5.72976 1.91376 5.34909 1.91376C4.96842 1.91376 4.60334 2.06499 4.33416 2.33416C4.06499 2.60334 3.91376 2.96842 3.91376 3.34909C3.91376 3.72976 4.06499 4.09484 4.33416 4.36402C4.60334 4.63319 4.96842 4.78441 5.34909 4.78441Z" fill="white"/>
<path d="M1.18217 6.54322C1.0107 6.36381 0.914338 6.12046 0.914286 5.8667V1C0.671802 1 0.43925 1.10081 0.267788 1.28026C0.0963263 1.45971 0 1.7031 0 1.95688L0 6.34514C5.17828e-05 6.59891 0.096412 6.84225 0.267886 7.02166L6.66789 13.7198C6.83934 13.8992 7.07185 14 7.31429 14C7.55672 14 7.78923 13.8992 7.96069 13.7198L8 13.6787L1.18217 6.54322Z" fill="white"/>
</svg>
