<svg width="23" height="23" viewBox="0 0 23 23" fill="none" xmlns="http://www.w3.org/2000/svg">
<path d="M22.9991 2.60172C23.0007 1.84003 22.6679 1.1161 22.0883 0.621446C21.5089 0.126961 20.7414 -0.0880737 19.989 0.0330897C19.2369 0.154435 18.576 0.599917 18.1814 1.2515C17.7867 1.90309 17.6983 2.69504 17.9394 3.41749L11.5 6.63618L5.06058 3.41749C5.28628 2.7389 5.22187 1.99726 4.88256 1.36754C4.54342 0.73799 3.95938 0.276095 3.26834 0.0911922C2.5773 -0.0938882 1.84039 0.0143791 1.23185 0.390168C0.623301 0.766122 0.196705 1.37634 0.0529521 2.07692C-0.090784 2.7775 0.0610665 3.50626 0.472405 4.09144C0.883909 4.67649 1.51848 5.06583 2.22657 5.1678V8.93526C1.40139 9.06108 0.687038 9.57574 0.30665 10.3186C-0.07356 11.0612 -0.07356 11.9416 0.30665 12.6842C0.687025 13.427 1.40139 13.9417 2.22657 14.0675V17.835C1.51848 17.937 0.883909 18.3263 0.472405 18.9113C0.0610661 19.4966 -0.0907797 20.2253 0.0529521 20.9259C0.196688 21.6264 0.623259 22.2367 1.23185 22.6126C1.84039 22.9884 2.5773 23.0967 3.26834 22.9116C3.95938 22.7267 4.54342 22.2648 4.88256 21.6352C5.22187 21.0055 5.28628 20.2639 5.06058 19.5853L11.5 16.3666L17.9394 19.5853C17.7137 20.2639 17.7781 21.0055 18.1174 21.6352C18.4566 22.2648 19.0406 22.7267 19.7317 22.9116C20.4227 23.0967 21.1596 22.9884 21.7682 22.6126C22.3767 22.2367 22.8033 21.6264 22.947 20.9259C23.0908 20.2253 22.9389 19.4965 22.5276 18.9113C22.1161 18.3263 21.4815 17.937 20.7734 17.835V14.0675C21.5986 13.9417 22.313 13.427 22.6934 12.6842C23.0736 11.9416 23.0736 11.0612 22.6934 10.3186C22.313 9.57579 21.5986 9.06109 20.7734 8.93526V5.1678C21.3909 5.07873 21.9556 4.77032 22.3643 4.29918C22.773 3.82788 22.9984 3.22528 22.999 2.60167L22.9991 2.60172ZM18.2697 4.08501C18.6817 4.67434 19.3198 5.06635 20.0317 5.16785V8.93532C19.3198 9.03679 18.6817 9.42883 18.2697 10.0182L12.3348 7.05158L18.2697 4.08501ZM10.6692 7.05158L4.73424 10.0182C4.32141 9.42798 3.68206 9.0358 2.96868 8.93532V5.16785C3.68057 5.06637 4.31862 4.67434 4.73059 4.08501L10.6692 7.05158ZM4.73424 18.9179C4.32141 18.3277 3.68206 17.9355 2.96868 17.835V14.0676C3.68057 13.9661 4.31862 13.5741 4.73059 12.9847L10.6655 15.9513L4.73424 18.9179ZM5.06444 12.3134C5.24262 11.784 5.24262 11.2111 5.06444 10.6818L11.5 7.46678L17.9395 10.6855C17.7615 11.2147 17.7615 11.7878 17.9395 12.3171L11.5 15.5358L5.06444 12.3134ZM12.3309 15.9511L18.2659 12.9846C18.6787 13.5747 19.3181 13.9669 20.0315 14.0674V17.8349C19.3196 17.9363 18.6815 18.3284 18.2695 18.9177L12.3309 15.9511Z" fill="#08135E"/>
</svg>
