<svg width="13" height="15" viewBox="0 0 13 15" fill="none" xmlns="http://www.w3.org/2000/svg">
<path d="M2.55222 10.1615C3.10655 10.1608 3.64565 9.97226 4.08762 9.62435C4.52959 9.2766 4.85065 8.78831 5.00178 8.23385H6.64255L8.38532 10.2723C7.89307 10.9636 7.75406 11.8603 8.01255 12.6774C8.27087 13.4944 8.89451 14.1304 9.68535 14.3831C10.476 14.6357 11.3355 14.4737 11.9907 13.9486C12.6457 13.4233 13.0151 12.6002 12.9812 11.7408C12.9474 10.8814 12.5145 10.0925 11.8201 9.62487C11.126 9.15728 10.2566 9.06886 9.48828 9.38805L7.8824 7.51094L9.48617 5.63383H9.48601C10.2577 5.95553 11.1315 5.86779 11.8297 5.39835C12.5279 4.92908 12.9634 4.13641 12.9978 3.27283C13.0322 2.40909 12.6612 1.58178 12.0028 1.05404C11.3444 0.526081 10.4805 0.363563 9.68585 0.61786C8.89133 0.872166 8.26491 1.51156 8.00577 2.3331C7.7468 3.15451 7.88743 4.05539 8.38291 4.74957L6.64253 6.78803H5.00176C4.82831 6.1522 4.43274 5.6066 3.89248 5.25833C3.35222 4.9099 2.70627 4.78416 2.0813 4.90537C1.45649 5.02672 0.897651 5.38642 0.514731 5.91386C0.131612 6.4413 -0.0479998 7.09865 0.0110128 7.75668C0.0698558 8.41488 0.363255 9.02636 0.833341 9.47127C1.30341 9.91601 1.91643 10.1623 2.5522 10.1616L2.55222 10.1615ZM10.4316 10.6434C10.7389 10.6434 11.0336 10.7703 11.251 10.9962C11.4683 11.2223 11.5903 11.5287 11.5903 11.8482C11.5903 12.1677 11.4683 12.4741 11.251 12.7C11.0336 12.9261 10.7389 13.053 10.4316 13.053C10.1243 13.053 9.8296 12.9261 9.61234 12.7C9.39492 12.4741 9.27287 12.1677 9.27287 11.8482C9.27287 11.5287 9.39492 11.2223 9.61234 10.9962C9.8296 10.7703 10.1243 10.6434 10.4316 10.6434ZM10.4316 1.96889C10.7389 1.96889 11.0336 2.09579 11.251 2.32185C11.4683 2.54775 11.5903 2.85416 11.5903 3.17368C11.5903 3.49321 11.4683 3.79962 11.251 4.02569C11.0336 4.25159 10.7389 4.37849 10.4316 4.37849C10.1243 4.37849 9.8296 4.25159 9.61234 4.02569C9.39492 3.79962 9.27287 3.49321 9.27287 3.17368C9.27287 2.85416 9.39492 2.54775 9.61234 2.32185C9.8296 2.09579 10.1243 1.96889 10.4316 1.96889ZM2.55222 6.30614C2.85952 6.30614 3.15422 6.43304 3.37148 6.65894C3.5889 6.885 3.71095 7.19141 3.71095 7.51094C3.71095 7.83047 3.5889 8.13687 3.37148 8.36294C3.15422 8.58884 2.85953 8.71574 2.55222 8.71574C2.2449 8.71574 1.95021 8.58884 1.73278 8.36294C1.51552 8.13688 1.39347 7.83047 1.39347 7.51094C1.39347 7.19141 1.51552 6.88501 1.73278 6.65894C1.95021 6.43304 2.2449 6.30614 2.55222 6.30614Z" fill="#08135E"/>
</svg>
