<svg width="14" height="14" viewBox="0 0 14 14" fill="none" xmlns="http://www.w3.org/2000/svg">
<path d="M13.7725 2.33438L11.6637 0.225633C11.5227 0.0900457 11.3344 0.0147223 11.1387 0.0156332C11.0404 0.0160278 10.9431 0.0363961 10.8529 0.0755025C10.7627 0.114609 10.6813 0.171639 10.6137 0.243133L9.5375 1.27563L12.7225 4.46063L13.7725 3.40188C13.8451 3.3332 13.9028 3.25044 13.9423 3.15867C13.9818 3.0669 14.0022 2.96804 14.0022 2.86813C14.0022 2.76823 13.9818 2.66937 13.9423 2.5776C13.9028 2.48583 13.8451 2.40307 13.7725 2.33438Z" fill="#817D9D"/>
<path d="M12.4275 6.99009L7.30625 12.1113L7.08586 11.8909L11.6323 7.34449L11.983 6.99375L11.6351 6.64022L11.0926 6.08897L10.7391 5.72974L10.3827 6.08613L2.96914 13.4997H0.5V11.0305L8.4875 3.04304L12.3028 6.85838L12.4275 6.99009Z" stroke="#817D9D"/>
</svg>
