<svg width="15" height="16" viewBox="0 0 15 16" fill="none" xmlns="http://www.w3.org/2000/svg">
<path d="M14.9286 8.25749C14.9364 8.24343 14.9457 8.22928 14.9534 8.21384L14.9535 8.21374C14.962 8.19349 14.9693 8.17285 14.9751 8.15181C14.9751 8.13775 14.9844 8.12507 14.9876 8.11091C14.9953 8.07611 14.9995 8.04072 15 8.00523C14.9995 7.96964 14.9953 7.93425 14.9876 7.89945C14.9876 7.88539 14.9782 7.87123 14.9751 7.85855V7.85865C14.9693 7.83761 14.962 7.81687 14.9535 7.79662C14.9535 7.78108 14.938 7.76703 14.9287 7.75297H14.9286C14.9193 7.73557 14.9089 7.71856 14.8976 7.70214C14.8868 7.68661 14.8743 7.67393 14.8619 7.65987C14.8494 7.64581 14.8433 7.63588 14.8325 7.62467L12.854 5.67972C12.7022 5.53196 12.475 5.46904 12.2581 5.51456C12.0413 5.56017 11.8677 5.70744 11.8027 5.90072C11.7378 6.0941 11.7913 6.30428 11.9432 6.45204L12.9564 7.43857L9.37069 7.43867C9.14891 7.43867 8.94404 7.54612 8.83321 7.72052C8.72226 7.89492 8.72226 8.10983 8.83321 8.28422C8.94404 8.45862 9.14894 8.56607 9.37069 8.56607H12.9564L11.9432 9.5526V9.5527C11.7924 9.70046 11.7398 9.91005 11.8054 10.1026C11.8709 10.295 12.0445 10.4412 12.2608 10.486C12.4772 10.5306 12.7033 10.4672 12.854 10.3193L14.834 8.38566C14.8448 8.37436 14.8526 8.36315 14.8634 8.35047C14.8742 8.33779 14.8882 8.32226 14.8991 8.3082C14.9099 8.29178 14.9197 8.27479 14.9286 8.25749Z" fill="#08135E"/>
<path d="M0.071435 7.7425C0.0636421 7.75655 0.054334 7.77071 0.0466494 7.78615L0.0465412 7.78624C0.0379908 7.8065 0.030739 7.82714 0.0248942 7.84818C0.0248942 7.86224 0.0155858 7.87492 0.012447 7.88908C0.0046541 7.92388 0.00054114 7.95927 0 7.99476C0.000541168 8.03035 0.0046541 8.06574 0.012447 8.10054C0.012447 8.1146 0.0217555 8.12875 0.0248942 8.14144V8.14134C0.0308471 8.16189 0.0380988 8.18214 0.0465412 8.202C0.0465412 8.21753 0.0620185 8.23159 0.0713268 8.24565H0.071435C0.0807433 8.26305 0.0911339 8.27996 0.102391 8.29637C0.113214 8.31191 0.125661 8.32459 0.138109 8.33865C0.150556 8.35271 0.156726 8.36263 0.167549 8.37384L2.14597 10.3203C2.29782 10.468 2.52501 10.531 2.74191 10.4854C2.95871 10.4398 3.13232 10.2926 3.19727 10.0993C3.26221 9.9059 3.20874 9.69572 3.05678 9.54796L2.0436 8.56143L5.62931 8.56133C5.85109 8.56133 6.05596 8.45388 6.16679 8.27948C6.27774 8.10508 6.27774 7.89017 6.16679 7.71578C6.05596 7.54138 5.85106 7.43393 5.62931 7.43393H2.0436L3.05678 6.4474V6.4473C3.20755 6.29954 3.26015 6.08995 3.19456 5.89744C3.12908 5.70495 2.95547 5.55877 2.73921 5.51404C2.52285 5.46941 2.29674 5.53282 2.14598 5.68068L0.166036 7.61434C0.155212 7.62564 0.14742 7.63685 0.136596 7.64953C0.125773 7.66221 0.11181 7.67775 0.100878 7.6918C0.0901624 7.70822 0.080313 7.72523 0.0714378 7.74253L0.071435 7.7425Z" fill="#08135E"/>
<path d="M9.8496 12.4768C9.74785 12.3542 9.6058 12.2816 9.4551 12.2752C9.3044 12.2688 9.15764 12.3291 9.04771 12.4427L8.06124 13.4557L8.06114 9.87059C8.06114 9.64885 7.95369 9.44401 7.77931 9.33319C7.60492 9.22227 7.39002 9.22227 7.21564 9.33319C7.04125 9.44401 6.93381 9.64888 6.93381 9.87059V13.4557L5.94734 12.4427H5.94724C5.79949 12.292 5.58991 12.2394 5.39742 12.3049C5.20494 12.3704 5.05876 12.544 5.01404 12.7602C4.96941 12.9766 5.03282 13.2026 5.18067 13.3534L7.11421 15.333C7.12551 15.3438 7.13672 15.3516 7.14802 15.3609C7.15933 15.3702 7.17624 15.3873 7.19167 15.3981C7.20809 15.4094 7.225 15.4198 7.2424 15.4292C7.25645 15.437 7.27061 15.4463 7.28604 15.454H7.28614C7.30639 15.4625 7.32704 15.4698 7.34807 15.4757L7.38897 15.4882V15.4881C7.46014 15.504 7.53347 15.504 7.60465 15.4881L7.64554 15.4756L7.64544 15.4757C7.66648 15.4698 7.68722 15.4625 7.70747 15.454C7.723 15.454 7.73706 15.4385 7.75112 15.4292C7.76852 15.4198 7.78552 15.4094 7.80194 15.3981C7.81747 15.3873 7.83153 15.3734 7.84559 15.3609C7.85965 15.3485 7.8681 15.3438 7.87941 15.333L9.82002 13.3534C9.92943 13.2414 9.99401 13.0862 9.99962 12.9218C10.0051 12.7575 9.95114 12.5974 9.8496 12.4768Z" fill="#08135E"/>
<path d="M9.05269 3.55595C9.1624 3.66789 9.30801 3.72733 9.45743 3.72105C9.60686 3.71477 9.74793 3.64342 9.84968 3.5226C9.95133 3.40178 10.0052 3.24143 9.9996 3.07689C9.9939 2.91222 9.92902 2.75686 9.8193 2.64492L7.88566 0.664472C7.87436 0.653645 7.86315 0.64585 7.85047 0.635024C7.83779 0.624198 7.82226 0.610232 7.8082 0.599297C7.79178 0.588037 7.77487 0.577644 7.75747 0.568225C7.74341 0.56043 7.72926 0.551119 7.71382 0.544949H7.71372C7.69347 0.536396 7.67283 0.529142 7.65179 0.523296L7.61089 0.510846C7.57511 0.503376 7.53873 0.499695 7.50236 0.50002C7.46687 0.500453 7.43148 0.504567 7.39668 0.512362L7.3544 0.524812C7.33386 0.530333 7.31361 0.537046 7.29375 0.544949C7.27821 0.544949 7.26415 0.56043 7.24862 0.569741L7.24872 0.569849C7.23132 0.578726 7.21441 0.588578 7.19789 0.599296C7.18236 0.610122 7.1683 0.622573 7.15425 0.635024C7.14019 0.647474 7.13026 0.653645 7.12043 0.664471L5.17971 2.64492C5.03196 2.79681 4.96904 3.02406 5.01456 3.24102C5.06017 3.45787 5.20744 3.63152 5.40072 3.69649C5.59409 3.76145 5.80427 3.70796 5.95203 3.55596L6.93856 2.54253L6.93865 6.12915C6.93865 6.35098 7.04611 6.55591 7.2205 6.66677C7.3949 6.77774 7.60981 6.77774 7.78419 6.66677C7.95859 6.55591 8.06604 6.35096 8.06604 6.12915V2.54253L9.05269 3.55595Z" fill="#08135E"/>
</svg>
