<?xml version="1.0" encoding="UTF-8"?>
<svg width="512pt" height="512pt" version="1.1" viewBox="0 0 512 512" xmlns="http://www.w3.org/2000/svg">
 <path d="m482.33 253.1c-0.046875-0.23438-0.11719-0.46484-0.23438-0.80469-0.19922-0.67188-0.42188-1.3242-0.70312-1.9141-0.11719-0.26172-0.26172-0.51172-0.48438-0.90625-0.30859-0.54297-0.64062-1.0547-1.0234-1.5586-0.20703-0.27734-0.42578-0.54297-0.67188-0.81641-0.43359-0.47656-0.89453-0.90625-1.3594-1.2891l-85.062-63.469c-5.6914-4.2344-14.422-2.9375-18.656 2.7305-4.3906 5.8945-3.1719 14.266 2.7266 18.66l52.258 38.934-159.79 0.003907v-159.79l38.934 52.25c4.2227 5.668 12.938 6.9766 18.66 2.7305 2.8516-2.1289 4.7148-5.2422 5.2227-8.7695 0.51562-3.5234-0.375-7.0352-2.5-9.8945l-62.957-84.484-0.44141-0.49219c-0.41406-0.50781-0.85938-0.98828-1.3672-1.4414-0.26172-0.23438-0.52344-0.44922-0.80078-0.66797-0.49609-0.375-1.0039-0.71094-1.6602-1.0781-0.25781-0.14453-0.51562-0.29297-0.77734-0.41406-0.61328-0.29297-1.2656-0.51563-2.0586-0.75391l-0.67578-0.20312c-2.0195-0.45312-3.8125-0.45312-5.8281 0-0.23438 0.054688-0.45703 0.12109-0.80078 0.23828-0.66797 0.19922-1.3125 0.42187-1.9258 0.71094-0.25 0.11719-0.49609 0.25-0.89453 0.48047-0.53906 0.30859-1.0547 0.64062-1.5508 1.0195-0.28125 0.21875-0.55469 0.4375-0.8125 0.67188-0.48438 0.4375-0.92188 0.90625-1.3008 1.3672l-63.449 85.051c-4.3906 5.8945-3.168 14.266 2.7305 18.66 5.6914 4.2305 14.434 2.9453 18.656-2.7305l38.934-52.258v159.8h-159.79l52.258-38.934c5.8945-4.3945 7.1133-12.762 2.7266-18.66-4.2227-5.668-12.961-6.9688-18.66-2.7266l-84.512 62.965c-0.19922 0.14453-0.375 0.31641-0.49219 0.44141-0.5 0.41406-0.97656 0.85938-1.4297 1.3555-0.23047 0.25781-0.44141 0.52344-0.65625 0.78906-0.38281 0.49609-0.71875 1.0195-1.082 1.6602-0.14844 0.25781-0.29297 0.51172-0.42578 0.78906-0.29297 0.61719-0.51562 1.2695-0.75391 2.0547l-0.19922 0.66797c-0.20703 1.0312-0.32031 1.9844-0.32031 2.9297s0.11328 1.8984 0.33594 2.8945c0.046875 0.23828 0.12109 0.46875 0.23828 0.8125 0.19141 0.66797 0.42188 1.3125 0.71094 1.9297 0.12109 0.27344 0.27344 0.53516 0.47656 0.89062 0.30859 0.55078 0.64453 1.0664 1.0312 1.5664 0.21484 0.27344 0.42578 0.53906 0.66016 0.79297 0.44922 0.49609 0.92969 0.9375 1.375 1.3086l85.039 63.453c5.6836 4.2383 14.422 2.9531 18.66-2.7188 4.3906-5.8945 3.168-14.266-2.7266-18.66l-52.258-38.934 159.79-0.003907v159.79l-38.934-52.258c-4.2344-5.668-12.969-6.9688-18.66-2.7266-5.8945 4.3945-7.1133 12.77-2.7266 18.66l62.953 84.496c0.14844 0.20313 0.32031 0.37891 0.47656 0.52344 0.41016 0.49609 0.84766 0.96484 1.3281 1.3984 0.26562 0.23828 0.54297 0.46484 0.80078 0.65625 0.49609 0.38281 1.0195 0.72656 1.7109 1.1211 0.25 0.13672 0.5 0.28125 0.73047 0.38281 0.61719 0.29297 1.2734 0.52344 2.0625 0.75781l0.66016 0.19141c1.0156 0.23438 1.9688 0.34766 2.9297 0.34766s1.9141-0.11328 2.9102-0.33594c0.23047-0.054687 0.44922-0.11719 0.79297-0.23438 0.67578-0.19922 1.3281-0.42578 1.9141-0.70312 0.28125-0.12891 0.55469-0.28125 0.89062-0.48047 0.55078-0.30859 1.0703-0.65234 1.5664-1.0312 0.27734-0.20703 0.55469-0.43359 0.82031-0.67187 0.48047-0.4375 0.92969-0.91797 1.2969-1.3672l63.461-85.043c2.1211-2.8516 3.0117-6.3672 2.5-9.8867-0.51172-3.5234-2.3672-6.6406-5.2227-8.7734-5.7031-4.2461-14.422-2.9492-18.66 2.7266l-38.934 52.258 0.003906-159.79h159.79l-52.258 38.934c-5.8945 4.3945-7.1133 12.77-2.7188 18.66 4.2305 5.668 12.953 6.9688 18.656 2.7266l84.508-62.965 0.48047-0.4375c0.50781-0.41406 0.98828-0.86328 1.4297-1.3555 0.23047-0.25781 0.45312-0.53516 0.67188-0.8125 0.37891-0.5 0.71875-1.0195 1.0625-1.6367 0.16016-0.27344 0.31641-0.54297 0.42578-0.78906 0.29297-0.61719 0.52344-1.2695 0.76172-2.0781l0.1875-0.65234c0.22266-1.0039 0.33594-1.9648 0.33594-2.9258s-0.11328-1.9219-0.33594-2.9023zm-5.3555 5.1211c-0.11719 0.39453-0.24609 0.78906-0.42187 1.1562l-0.29688 0.53906c-0.17969 0.33203-0.38281 0.64063-0.60156 0.92969l-0.39844 0.48438c-0.26172 0.29297-0.54297 0.55469-1.1367 1.0898l-84.504 62.953c-3.4453 2.5859-8.6406 1.8008-11.195-1.6328-2.6406-3.5352-1.9023-8.5547 1.6328-11.195l65.152-48.543h-181.21v181.21l48.543-65.152c2.5586-3.4297 7.75-4.207 11.199-1.6328 3.5352 2.6328 4.2734 7.6602 1.6328 11.195l-62.879 84.395-0.36719 0.39062c-0.25 0.30859-0.51172 0.58594-0.78906 0.84375l-0.48438 0.39844c-0.30469 0.23047-0.60938 0.42578-0.96875 0.62891l-0.50781 0.27734c-0.36719 0.17578-0.75781 0.30469-1.625 0.57031-1.2383 0.28125-1.793 0.43359-3.957-0.14844-0.39844-0.11719-0.79297-0.24609-1.168-0.42188l-0.51562-0.28125c-0.33203-0.1875-0.65234-0.39062-0.96875-0.64062l-0.47656-0.38672c-0.28125-0.25781-0.54297-0.53906-0.77734-0.82031-0.11719-0.14453-0.25-0.28125-0.30469-0.30859l-62.961-84.496c-2.6328-3.5352-1.8984-8.5547 1.6445-11.199 1.3867-1.0352 3.0391-1.5859 4.7695-1.5859 2.5547 0 4.8945 1.1719 6.4258 3.2227l48.535 65.152v-181.21h-181.21l65.152 48.551c3.5352 2.6328 4.2734 7.6602 1.6445 11.195-2.5586 3.4336-7.75 4.207-11.199 1.6328l-84.371-62.855-0.40625-0.37891c-0.30859-0.25781-0.60156-0.52344-0.87109-0.8125l-0.39844-0.48438c-0.22266-0.29688-0.42578-0.60938-0.61328-0.9375l-0.28906-0.52734c-0.17188-0.36719-0.29688-0.75781-0.57031-1.6328-0.13672-0.62891-0.20312-1.1992-0.20312-1.75s0.070312-1.1211 0.36719-2.2227c0.11328-0.39844 0.23828-0.78516 0.41406-1.1562l-2.4141-1.1289 2.7109 0.60937c0.17969-0.33203 0.37891-0.64062 0.60938-0.9375l0.39453-0.48047c0.26172-0.28906 0.55078-0.55469 0.85938-0.80469 0.13672-0.11719 0.26562-0.23828 0.28125-0.28125l84.496-62.961c3.457-2.5742 8.6406-1.7969 11.199 1.6367 2.6328 3.5352 1.8984 8.5586-1.6367 11.195l-65.156 48.531h181.21v-181.21l-48.543 65.152c-2.5547 3.4336-7.7422 4.207-11.195 1.6367-3.5352-2.6328-4.2734-7.6602-1.6367-11.195l62.875-84.387 0.37891-0.39844c0.23828-0.30078 0.49609-0.58203 0.78906-0.84375l0.49609-0.41016c0.29297-0.22266 0.60156-0.42578 0.91797-0.60156l0.54297-0.29688c0.36328-0.17188 0.74609-0.29688 1.625-0.57031 1.2422-0.28125 2.2734-0.27734 3.4727-0.003906l0.73438-2.5586-0.23047 2.7305c0.39453 0.11328 0.77734 0.23438 1.1367 0.41016l0.53906 0.29297c0.33203 0.1875 0.64062 0.39062 0.93359 0.61328l0.48437 0.39844c0.29688 0.26562 0.55859 0.55859 1.0898 1.1406l62.961 84.5c1.2812 1.7109 1.8125 3.8242 1.5039 5.9375-0.30859 2.1133-1.4258 3.9844-3.1289 5.2578-3.457 2.5703-8.6445 1.7969-11.199-1.6367l-48.547-65.168v181.21h181.21l-65.152-48.543c-3.5352-2.6328-4.2734-7.6602-1.6367-11.195 2.5664-3.4297 7.7539-4.1992 11.199-1.6367l84.395 62.879 0.39844 0.37891c0.29688 0.24609 0.58203 0.50781 0.82031 0.77344l0.40625 0.49219c0.23047 0.30469 0.4375 0.625 0.625 0.94922l0.28906 0.52734c0.17188 0.36719 0.30469 0.76172 0.57031 1.6367 0.14453 0.61328 0.21094 1.1836 0.21094 1.7383s-0.066406 1.125-0.35547 2.2188z" fill="#08125d"/>
</svg>
