<svg width="9" height="21" viewBox="0 0 9 21" fill="none" xmlns="http://www.w3.org/2000/svg">
<path d="M4.53774 21C1.69791 20.9998 0.00148501 19.123 0 15.9807L0.0169727 3.25203C0.0167579 2.99895 0.0625201 2.104 0.659981 1.26487C1.07055 0.687909 1.85387 9.36508e-05 3.25253 9.36508e-05C3.25403 -0.000117064 3.25467 9.36508e-05 3.25596 9.36508e-05C4.68707 9.36508e-05 5.46455 0.640491 5.86523 1.17763C6.44081 1.95036 6.5029 2.84976 6.5029 3.20041L6.48679 15.9835C6.487 16.3445 6.48743 17.1925 5.89317 17.7754C5.53008 18.1315 5.02884 18.3119 4.40366 18.3119H4.39893C3.21901 18.3119 2.51369 17.4401 2.51281 15.9791L2.50765 3.237C2.50765 2.90342 2.7833 2.63285 3.12338 2.63242H3.12359C3.46369 2.63242 3.73954 2.90278 3.73954 3.23635L3.74513 15.9785C3.74577 17.0932 4.1963 17.1035 4.39501 17.1035H4.40274C4.69042 17.1035 4.89839 17.042 5.02215 16.921C5.25505 16.6926 5.25462 16.2139 5.25462 15.9833L5.2703 3.19908C5.2703 2.96728 5.23142 2.37532 4.86983 1.89002C4.53232 1.43717 3.98895 1.20749 3.25508 1.20749H3.25293L3.25272 1.20791C2.55532 1.20791 2.02319 1.45953 1.66998 1.9562C1.35867 2.39368 1.24824 2.92767 1.24867 3.25216L1.23169 15.9808C1.23255 17.7182 1.80705 19.791 4.53748 19.7914C7.20758 19.7912 7.76809 17.7206 7.76809 15.9838L7.74188 4.91775C7.74102 4.58396 8.01623 4.31296 8.35634 4.3121H8.35784C8.69751 4.3121 8.97296 4.58183 8.97379 4.915L9 15.9821C9.00021 19.1706 7.37364 20.9989 4.53766 20.9995L4.53774 21Z" fill="white"/>
</svg>
