<svg width="15" height="16" viewBox="0 0 15 16" fill="none" xmlns="http://www.w3.org/2000/svg">
<mask id="path-1-inside-1_1548_17116" fill="white">
<path d="M14.7456 2.83442C14.7047 2.7294 14.6131 2.65231 14.5026 2.62933C14.3923 2.60625 14.2778 2.64041 14.198 2.72016L12.3071 4.61112L10.8889 3.1929L12.7798 1.30197C12.8596 1.22222 12.8938 1.10771 12.8707 0.997405C12.8477 0.886945 12.7706 0.795322 12.6656 0.75445C11.3045 0.220194 9.75714 0.542774 8.72371 1.57621C7.74372 2.5562 7.40329 4 7.82705 5.30928L0.488713 12.6476C-0.162904 13.2992 -0.162904 14.3597 0.488713 15.0113C1.14033 15.6629 2.20077 15.6629 2.85238 15.0113L10.1908 7.67292C11.5 8.09674 12.9438 7.75625 13.9238 6.77626C14.9572 5.74286 15.2798 4.1955 14.7456 2.83442ZM10.2256 6.97584C10.102 6.92749 9.96144 6.95678 9.86748 7.05074L2.37967 14.5385C1.98865 14.9296 1.35248 14.9296 0.961453 14.5385C0.570426 14.1475 0.570426 13.5114 0.961453 13.1204L8.44925 5.63252C8.54322 5.53859 8.57251 5.39802 8.52416 5.27442C8.08815 4.1595 8.35197 2.8934 9.19645 2.04895C9.91455 1.33084 10.936 1.03236 11.9097 1.22662L10.1798 2.95653C10.0493 3.08706 10.0493 3.29877 10.1798 3.42927L12.0707 5.3202C12.2013 5.45073 12.4129 5.45073 12.5435 5.3202L14.2734 3.59029C14.4676 4.56404 14.1692 5.58544 13.4511 6.30355C12.6066 7.14803 11.3405 7.41185 10.2256 6.97584Z"/>
</mask>
<path d="M14.7456 2.83442C14.7047 2.7294 14.6131 2.65231 14.5026 2.62933C14.3923 2.60625 14.2778 2.64041 14.198 2.72016L12.3071 4.61112L10.8889 3.1929L12.7798 1.30197C12.8596 1.22222 12.8938 1.10771 12.8707 0.997405C12.8477 0.886945 12.7706 0.795322 12.6656 0.75445C11.3045 0.220194 9.75714 0.542774 8.72371 1.57621C7.74372 2.5562 7.40329 4 7.82705 5.30928L0.488713 12.6476C-0.162904 13.2992 -0.162904 14.3597 0.488713 15.0113C1.14033 15.6629 2.20077 15.6629 2.85238 15.0113L10.1908 7.67292C11.5 8.09674 12.9438 7.75625 13.9238 6.77626C14.9572 5.74286 15.2798 4.1955 14.7456 2.83442ZM10.2256 6.97584C10.102 6.92749 9.96144 6.95678 9.86748 7.05074L2.37967 14.5385C1.98865 14.9296 1.35248 14.9296 0.961453 14.5385C0.570426 14.1475 0.570426 13.5114 0.961453 13.1204L8.44925 5.63252C8.54322 5.53859 8.57251 5.39802 8.52416 5.27442C8.08815 4.1595 8.35197 2.8934 9.19645 2.04895C9.91455 1.33084 10.936 1.03236 11.9097 1.22662L10.1798 2.95653C10.0493 3.08706 10.0493 3.29877 10.1798 3.42927L12.0707 5.3202C12.2013 5.45073 12.4129 5.45073 12.5435 5.3202L14.2734 3.59029C14.4676 4.56404 14.1692 5.58544 13.4511 6.30355C12.6066 7.14803 11.3405 7.41185 10.2256 6.97584Z" fill="white"/>
<path d="M14.7456 2.83442L13.8136 3.19712L13.8147 3.1998L14.7456 2.83442ZM14.5026 2.62933L14.2978 3.60813L14.2989 3.60837L14.5026 2.62933ZM14.198 2.72016L13.4909 2.01305L13.4909 2.01306L14.198 2.72016ZM12.3071 4.61112L11.6 5.31823L12.3071 6.02534L13.0142 5.31822L12.3071 4.61112ZM10.8889 3.1929L10.1818 2.48579L9.47466 3.19289L10.1818 3.90001L10.8889 3.1929ZM12.7798 1.30197L13.4869 2.00908L13.4869 2.00908L12.7798 1.30197ZM12.8707 0.997405L11.8916 1.20086L11.8919 1.20221L12.8707 0.997405ZM12.6656 0.75445L12.3002 1.68531L12.3029 1.68635L12.6656 0.75445ZM7.82705 5.30928L8.53416 6.01639L8.96692 5.58362L8.77846 5.00134L7.82705 5.30928ZM0.488713 12.6476L1.19582 13.3547H1.19582L0.488713 12.6476ZM2.85238 15.0113L3.55949 15.7184L2.85238 15.0113ZM10.1908 7.67292L10.4987 6.72153L9.91643 6.53302L9.48365 6.96581L10.1908 7.67292ZM10.2256 6.97584L9.86135 7.90713L9.86139 7.90715L10.2256 6.97584ZM9.86748 7.05074L9.16037 6.34364L9.86748 7.05074ZM2.37967 14.5385L3.08678 15.2457H3.08678L2.37967 14.5385ZM0.961453 13.1204L1.66853 13.8275L1.66856 13.8275L0.961453 13.1204ZM8.44925 5.63252L7.74227 4.9253L7.74215 4.92542L8.44925 5.63252ZM8.52416 5.27442L7.59285 5.63863L7.59287 5.63869L8.52416 5.27442ZM9.19645 2.04895L9.90355 2.75607L9.90356 2.75605L9.19645 2.04895ZM11.9097 1.22662L12.6168 1.93373L13.9388 0.611731L12.1054 0.245946L11.9097 1.22662ZM10.1798 2.95653L10.8869 3.66364H10.8869L10.1798 2.95653ZM10.1798 3.42927L10.8869 2.72216L10.8868 2.72208L10.1798 3.42927ZM12.0707 5.3202L12.7778 4.61309L12.0707 5.3202ZM12.5435 5.3202L11.8364 4.61309L12.5435 5.3202ZM14.2734 3.59029L15.2541 3.39465L14.8883 1.56118L13.5663 2.88318L14.2734 3.59029ZM13.4511 6.30355L12.744 5.59642L12.7439 5.59645L13.4511 6.30355ZM15.6775 2.47172C15.5129 2.04888 15.1457 1.7417 14.7063 1.65029L14.2989 3.60837C14.0805 3.56293 13.8965 3.40993 13.8136 3.19712L15.6775 2.47172ZM14.7074 1.65053C14.2663 1.55823 13.809 1.69497 13.4909 2.01305L14.9051 3.42727C14.7465 3.58585 14.5183 3.65426 14.2978 3.60813L14.7074 1.65053ZM13.4909 2.01306L11.6 3.90402L13.0142 5.31822L14.9051 3.42726L13.4909 2.01306ZM13.0142 3.90402L11.596 2.48579L10.1818 3.90001L11.6 5.31823L13.0142 3.90402ZM11.596 3.90001L13.4869 2.00908L12.0727 0.594857L10.1818 2.48579L11.596 3.90001ZM13.4869 2.00908C13.805 1.69099 13.9418 1.23367 13.8495 0.792598L11.8919 1.20221C11.8457 0.981741 11.9141 0.75345 12.0727 0.594863L13.4869 2.00908ZM13.8498 0.793955C13.7584 0.354293 13.451 -0.012921 13.0283 -0.177455L12.3029 1.68635C12.0902 1.60357 11.937 1.4196 11.8916 1.20085L13.8498 0.793955ZM13.031 -0.176407C11.2999 -0.855881 9.33141 -0.445707 8.01661 0.869098L9.43082 2.28331C10.1829 1.53125 11.3091 1.29627 12.3002 1.68531L13.031 -0.176407ZM8.01661 0.869098C6.76922 2.11649 6.33699 3.95297 6.87564 5.61721L8.77846 5.00134C8.46958 4.04702 8.71823 2.9959 9.43082 2.28331L8.01661 0.869098ZM7.11994 4.60217L-0.218394 11.9405L1.19582 13.3547L8.53416 6.01639L7.11994 4.60217ZM-0.218394 11.9405C-1.26054 12.9827 -1.26054 14.6763 -0.218394 15.7184L1.19582 14.3042C0.934727 14.0431 0.934727 13.6158 1.19582 13.3547L-0.218394 11.9405ZM-0.218394 15.7184C0.823747 16.7605 2.51735 16.7605 3.55949 15.7184L2.14528 14.3042C1.88418 14.5653 1.45691 14.5653 1.19582 14.3042L-0.218394 15.7184ZM3.55949 15.7184L10.8979 8.38002L9.48365 6.96581L2.14528 14.3042L3.55949 15.7184ZM9.88277 8.62431C11.547 9.16306 13.3836 8.73073 14.6309 7.48336L13.2167 6.06915C12.5041 6.78176 11.453 7.03042 10.4987 6.72153L9.88277 8.62431ZM14.6309 7.48336C15.9457 6.16858 16.3559 4.20007 15.6764 2.46904L13.8147 3.1998C14.2037 4.19092 13.9687 5.31713 13.2167 6.06915L14.6309 7.48336ZM10.5899 6.04454C10.0968 5.85168 9.53558 5.96842 9.16037 6.34364L10.5746 7.75785C10.3873 7.94513 10.1072 8.00331 9.86135 7.90713L10.5899 6.04454ZM9.16037 6.34364L1.67257 13.8314L3.08678 15.2457L10.5746 7.75785L9.16037 6.34364ZM1.67257 13.8314C1.67174 13.8323 1.67154 13.8323 1.67193 13.8321C1.67226 13.8318 1.67262 13.8317 1.67286 13.8316C1.67317 13.8314 1.67234 13.8318 1.67056 13.8318C1.66879 13.8318 1.66796 13.8314 1.66827 13.8316C1.66851 13.8317 1.66886 13.8318 1.6692 13.8321C1.66959 13.8323 1.66939 13.8323 1.66856 13.8314L0.254346 15.2457C1.0359 16.0272 2.30523 16.0272 3.08678 15.2457L1.67257 13.8314ZM1.66856 13.8314C1.66773 13.8306 1.66767 13.8304 1.66793 13.8308C1.66815 13.8311 1.66833 13.8315 1.66843 13.8317C1.66855 13.832 1.66818 13.8312 1.66818 13.8294C1.66818 13.8277 1.66855 13.8268 1.66842 13.8272C1.66832 13.8274 1.66814 13.8278 1.66792 13.8281C1.66765 13.8285 1.66771 13.8283 1.66853 13.8275L0.254375 12.4132C-0.52723 13.1948 -0.527189 14.4641 0.254346 15.2457L1.66856 13.8314ZM1.66856 13.8275L9.15636 6.33963L7.74215 4.92542L0.254345 12.4133L1.66856 13.8275ZM9.15624 6.33975C9.53163 5.96449 9.6483 5.40319 9.45546 4.91016L7.59287 5.63869C7.49671 5.39285 7.55481 5.11269 7.74227 4.9253L9.15624 6.33975ZM9.45548 4.91021C9.16365 4.16398 9.3409 3.31869 9.90355 2.75607L8.48936 1.34183C7.36303 2.46811 7.01264 4.15501 7.59285 5.63863L9.45548 4.91021ZM9.90356 2.75605C10.3825 2.27712 11.0641 2.07762 11.7141 2.20729L12.1054 0.245946C10.8079 -0.0129043 9.44661 0.384571 8.48935 1.34184L9.90356 2.75605ZM11.2026 0.519513L9.47269 2.24942L10.8869 3.66364L12.6168 1.93373L11.2026 0.519513ZM9.47269 2.24942C8.95168 2.77043 8.95156 3.61537 9.47278 4.13646L10.8868 2.72208C11.147 2.98217 11.1468 3.40369 10.8869 3.66364L9.47269 2.24942ZM9.47269 4.13638L11.3636 6.02731L12.7778 4.61309L10.8869 2.72216L9.47269 4.13638ZM11.3636 6.02731C11.8847 6.54836 12.7295 6.54836 13.2506 6.02731L11.8364 4.61309C12.0964 4.3531 12.5178 4.3531 12.7778 4.61309L11.3636 6.02731ZM13.2506 6.02731L14.9805 4.2974L13.5663 2.88318L11.8364 4.61309L13.2506 6.02731ZM13.2927 3.78594C13.4224 4.43597 13.2229 5.11751 12.744 5.59642L14.1581 7.01067C15.1155 6.05338 15.5129 4.69212 15.2541 3.39465L13.2927 3.78594ZM12.7439 5.59645C12.1813 6.15911 11.336 6.33634 10.5898 6.04452L9.86139 7.90715C11.345 8.48736 13.0319 8.13696 14.1582 7.01064L12.7439 5.59645Z" fill="#08135E" mask="url(#path-1-inside-1_1548_17116)"/>
</svg>
