<svg xmlns="http://www.w3.org/2000/svg" xmlns:xlink="http://www.w3.org/1999/xlink" width="100" height="100" viewBox="20 0 60 50">
    <g transform="translate(50 50) rotate(45) translate(-50 -50)" style="fill:#ffffff">
    <path d="M36.3999,4.0835c-0.3086-0.1357-0.6655-0.105-0.9478,0.0801C35.1699,4.3481,35,4.6626,35,5v8h-6V5   c0-0.3374-0.1699-0.6519-0.4521-0.8364c-0.2822-0.1851-0.6392-0.2158-0.9478-0.0801C23.5908,5.8325,21,9.7881,21,14.1602   c0,4.146,2.334,7.9204,6,9.7935V55c0,2.7568,2.2432,5,5,5s5-2.2432,5-5V23.9536c3.666-1.873,6-5.6475,6-9.7935   C43,9.7881,40.4092,5.8325,36.3999,4.0835z M35.5991,22.4053C35.2354,22.5645,35,22.9238,35,23.3213V55c0,1.6543-1.3457,3-3,3   s-3-1.3457-3-3V23.3213c0-0.3975-0.2354-0.7568-0.5991-0.916C25.1201,20.9692,23,17.7329,23,14.1602   c0-3.0381,1.5293-5.8301,4-7.479V14c0,0.5522,0.4478,1,1,1h8c0.5522,0,1-0.4478,1-1V6.6812c2.4707,1.6489,4,4.4409,4,7.479   C41,17.7329,38.8799,20.9692,35.5991,22.4053z">
    </path>
    </g>
</svg>