<?xml version="1.0" encoding="UTF-8"?><svg xmlns="http://www.w3.org/2000/svg" xmlns:xlink="http://www.w3.org/1999/xlink" width="1874.88pt" zoomAndPan="magnify" viewBox="0 0 1874.88 1874.999927" height="1874.999927pt" preserveAspectRatio="xMidYMid meet" version="1.2"><defs><clipPath xml:id="clip1" id="clip1"><path d="M 0 0.0585938 L 1874.761719 0.0585938 L 1874.761719 1874.9375 L 0 1874.9375 Z M 0 0.0585938 "/></clipPath><clipPath xml:id="clip2" id="clip2"><path d="M 22 15 L 1873 15 L 1873 1867 L 22 1867 Z M 22 15 "/></clipPath><clipPath xml:id="clip3" id="clip3"><path d="M 899.085938 -876.894531 L 2765.5625 989.582031 L 899.085938 2856.0625 L -967.394531 989.582031 Z M 899.085938 -876.894531 "/></clipPath></defs><g xml:id="surface1" id="surface1"><g clip-rule="nonzero" clip-path="url(#clip1)"><rect x="0" width="1874.88" y="0" height="1874.999927" style="fill:rgb(3.138733%,7.449341%,36.859131%);fill-opacity:1;stroke:none;"/></g><g clip-rule="nonzero" clip-path="url(#clip2)"><g clip-rule="nonzero" clip-path="url(#clip3)"><path style=" stroke:none;fill-rule:nonzero;fill:rgb(100%,100%,100%);fill-opacity:1;" d="M 1841.550781 303.75 C 1836.507812 290.792969 1825.207031 281.28125 1811.574219 278.445312 C 1797.964844 275.597656 1783.835938 279.8125 1773.996094 289.652344 L 1540.6875 522.964844 L 1365.703125 347.980469 L 1599.015625 114.671875 C 1608.855469 104.832031 1613.070312 90.703125 1610.222656 77.09375 C 1607.390625 63.464844 1597.875 52.160156 1584.917969 47.117188 C 1416.984375 -18.800781 1226.066406 21 1098.558594 148.507812 C 977.644531 269.421875 935.640625 447.5625 987.925781 609.105469 L 82.5 1514.53125 C 2.101562 1594.929688 2.101562 1725.769531 82.5 1806.167969 C 162.898438 1886.566406 293.738281 1886.566406 374.136719 1806.167969 L 1279.566406 900.738281 C 1441.105469 953.03125 1619.25 911.019531 1740.164062 790.105469 C 1867.667969 662.601562 1907.46875 471.683594 1841.550781 303.75 Z M 1283.867188 814.730469 C 1268.617188 808.765625 1251.273438 812.378906 1239.679688 823.972656 L 315.8125 1747.839844 C 267.566406 1796.085938 189.074219 1796.085938 140.828125 1747.839844 C 92.582031 1699.59375 92.582031 1621.101562 140.828125 1572.859375 L 1064.695312 648.988281 C 1076.289062 637.398438 1079.902344 620.054688 1073.9375 604.804688 C 1020.140625 467.242188 1052.691406 311.027344 1156.886719 206.835938 C 1245.488281 118.234375 1371.515625 81.40625 1491.65625 105.375 L 1278.214844 318.816406 C 1262.109375 334.921875 1262.109375 361.042969 1278.214844 377.144531 L 1511.523438 610.453125 C 1527.628906 626.558594 1553.746094 626.558594 1569.851562 610.453125 L 1783.292969 397.011719 C 1807.261719 517.15625 1770.4375 643.179688 1681.832031 731.78125 C 1577.640625 835.976562 1421.425781 868.527344 1283.867188 814.730469 Z M 1283.867188 814.730469 "/></g></g></g></svg>