<svg width="21" height="23" viewBox="0 0 21 23" fill="none" xmlns="http://www.w3.org/2000/svg">
<path d="M4.05034 15.6586C4.91648 15.6576 5.75882 15.3629 6.44941 14.8193C7.13999 14.2759 7.64164 13.513 7.87778 12.6466H10.4415L13.1646 15.8317C12.3954 16.9119 12.1782 18.313 12.5821 19.5897C12.9857 20.8663 13.9602 21.8601 15.1959 22.2548C16.4312 22.6495 17.7742 22.3963 18.798 21.5759C19.8214 20.7552 20.3986 19.4691 20.3456 18.1263C20.2928 16.7835 19.6164 15.5507 18.5315 14.8201C17.4469 14.0895 16.0885 13.9513 14.8879 14.4501L12.3787 11.5171L14.8846 8.5841H14.8844C16.0902 9.08677 17.4555 8.94968 18.5464 8.21617C19.6373 7.48294 20.3178 6.24439 20.3716 4.89505C20.4254 3.54545 19.8457 2.25278 18.8169 1.42818C17.7881 0.603251 16.4383 0.349318 15.1966 0.746657C13.9552 1.14401 12.9764 2.14306 12.5715 3.42671C12.1669 4.71017 12.3866 6.1178 13.1608 7.20245L10.4415 10.3875H7.87775C7.60673 9.39406 6.98866 8.54157 6.1445 7.99739C5.30035 7.45297 4.29104 7.2565 3.31453 7.44589C2.33827 7.6355 1.46508 8.19754 0.866767 9.02166C0.268144 9.84579 -0.0124997 10.8729 0.0797076 11.9011C0.17165 12.9295 0.630086 13.8849 1.36459 14.5801C2.09908 15.275 3.05692 15.6598 4.05031 15.6587L4.05034 15.6586ZM16.3619 16.4115C16.842 16.4115 17.3025 16.6098 17.6422 16.9628C17.9817 17.316 18.1724 17.7948 18.1724 18.2941C18.1724 18.7933 17.9817 19.2721 17.6422 19.625C17.3025 19.9783 16.8421 20.1765 16.3619 20.1765C15.8817 20.1765 15.4213 19.9783 15.0818 19.625C14.7421 19.2721 14.5514 18.7933 14.5514 18.2941C14.5514 17.7948 14.7421 17.316 15.0818 16.9628C15.4213 16.6098 15.8817 16.4115 16.3619 16.4115ZM16.3619 2.85764C16.842 2.85764 17.3025 3.05592 17.6422 3.40915C17.9817 3.76211 18.1724 4.24087 18.1724 4.74013C18.1724 5.2394 17.9817 5.71815 17.6422 6.07139C17.3025 6.42435 16.8421 6.62263 16.3619 6.62263C15.8817 6.62263 15.4213 6.42435 15.0818 6.07139C14.7421 5.71816 14.5514 5.2394 14.5514 4.74013C14.5514 4.24087 14.7421 3.76211 15.0818 3.40915C15.4213 3.05592 15.8817 2.85764 16.3619 2.85764ZM4.05034 9.63459C4.5305 9.63459 4.99097 9.83287 5.33044 10.1858C5.67016 10.5391 5.86087 11.0178 5.86087 11.5171C5.86087 12.0164 5.67016 12.4951 5.33044 12.8483C4.99097 13.2013 4.53051 13.3996 4.05034 13.3996C3.57016 13.3996 3.10971 13.2013 2.76997 12.8483C2.4305 12.4951 2.2398 12.0164 2.2398 11.5171C2.2398 11.0178 2.4305 10.5391 2.76997 10.1858C3.1097 9.83287 3.57016 9.63459 4.05034 9.63459Z" fill="#08135E"/>
</svg>
