<svg width="17" height="18" viewBox="0 0 17 18" fill="none" xmlns="http://www.w3.org/2000/svg">
<path d="M3.44027 12.3269C4.13318 12.3261 4.80706 12.0903 5.35953 11.6554C5.91199 11.2207 6.31331 10.6104 6.50222 9.91731H8.55318L10.7317 12.4654C10.1163 13.3295 9.94258 14.4504 10.2657 15.4717C10.5886 16.493 11.3681 17.2881 12.3567 17.6038C13.345 17.9196 14.4194 17.7171 15.2384 17.0607C16.0571 16.4042 16.5189 15.3753 16.4764 14.301C16.4342 13.2268 15.8931 12.2406 15.0252 11.6561C14.1575 11.0716 13.0708 10.9611 12.1103 11.3601L10.103 9.01367L12.1077 6.66728H12.1075C13.0722 7.06942 14.1644 6.95974 15.0371 6.37293C15.9098 5.78635 16.4542 4.79552 16.4972 3.71604C16.5403 2.63636 16.0765 1.60222 15.2535 0.942547C14.4305 0.282601 13.3507 0.0794541 12.3573 0.397326C11.3642 0.715208 10.5811 1.51445 10.2572 2.54137C9.9335 3.56813 10.1093 4.69424 10.7286 5.56196L8.55316 8.11004H6.5022C6.28539 7.31525 5.79093 6.63325 5.1156 6.19792C4.44028 5.76238 3.63284 5.6052 2.85162 5.75671C2.07061 5.9084 1.37206 6.35803 0.893414 7.01733C0.414515 7.67663 0.19 8.49831 0.263766 9.32085C0.33732 10.1436 0.704069 10.9079 1.29168 11.4641C1.87927 12.02 2.64553 12.3278 3.44025 12.327L3.44027 12.3269ZM13.2895 12.9292C13.6736 12.9292 14.042 13.0879 14.3138 13.3702C14.5854 13.6528 14.7379 14.0358 14.7379 14.4352C14.7379 14.8347 14.5854 15.2177 14.3138 15.5C14.042 15.7826 13.6736 15.9412 13.2895 15.9412C12.9054 15.9412 12.537 15.7826 12.2654 15.5C11.9936 15.2177 11.8411 14.8347 11.8411 14.4352C11.8411 14.0358 11.9936 13.6528 12.2654 13.3702C12.537 13.0879 12.9054 12.9292 13.2895 12.9292ZM13.2895 2.08611C13.6736 2.08611 14.042 2.24473 14.3138 2.52732C14.5854 2.80969 14.7379 3.1927 14.7379 3.59211C14.7379 3.99152 14.5854 4.37452 14.3138 4.65711C14.042 4.93948 13.6736 5.09811 13.2895 5.09811C12.9054 5.09811 12.537 4.93948 12.2654 4.65711C11.9936 4.37453 11.8411 3.99152 11.8411 3.59211C11.8411 3.1927 11.9936 2.80969 12.2654 2.52732C12.537 2.24473 12.9054 2.08611 13.2895 2.08611ZM3.44027 7.50767C3.8244 7.50767 4.19277 7.6663 4.46435 7.94867C4.73613 8.23126 4.88869 8.61427 4.88869 9.01368C4.88869 9.41309 4.73613 9.79609 4.46435 10.0787C4.19277 10.3611 3.82441 10.5197 3.44027 10.5197C3.05613 10.5197 2.68776 10.3611 2.41598 10.0787C2.1444 9.7961 1.99184 9.41309 1.99184 9.01368C1.99184 8.61427 2.1444 8.23126 2.41598 7.94867C2.68776 7.6663 3.05613 7.50767 3.44027 7.50767Z" fill="#AEB0C2"/>
</svg>
