<svg width="18" height="16" viewBox="0 0 18 16" fill="none" xmlns="http://www.w3.org/2000/svg">
<path d="M17.4858 9.33225C14.6999 12.4243 11.86 13.997 9.01361 13.997C8.15816 13.9943 7.30856 13.8572 6.49667 13.5905L6.38221 13.5437L6.30831 13.4905C6.14292 13.3743 6.03928 13.1903 6.02621 12.9899C6.01314 12.7894 6.092 12.594 6.24101 12.4576L7.88296 10.8316C7.9112 10.8016 7.9429 10.7747 7.97715 10.7516L8.08485 10.685L8.1589 10.6516C8.2292 10.6222 8.30461 10.6063 8.38091 10.6051H8.52226C8.67878 10.6426 8.83906 10.6627 9.0001 10.665C9.71404 10.665 10.3987 10.3842 10.9034 9.88425C11.4083 9.38446 11.6919 8.70645 11.6919 7.99947C11.6929 7.84492 11.6772 7.69081 11.6447 7.5397C11.6414 7.49968 11.6414 7.45967 11.6447 7.41966C11.6461 7.34409 11.662 7.26942 11.6919 7.19981C11.6989 7.17378 11.7104 7.14894 11.7255 7.12648C11.744 7.08869 11.7665 7.05285 11.7928 7.01982C11.8161 6.98591 11.8431 6.95452 11.8736 6.92656L14.2694 4.55417H14.2692C14.4382 4.39635 14.6772 4.33596 14.9019 4.39427H14.9692L15.0837 4.46091L15.1778 4.50761H15.1777C16.0038 5.16551 16.7757 5.88739 17.486 6.66668C17.8171 7.0332 18 7.50771 18 7.99946C18 8.49122 17.817 8.96573 17.486 9.33224L17.4858 9.33225ZM7.09552 10.8316L2.07533 15.8029C1.949 15.929 1.77701 16 1.5975 16C1.41799 16 1.24601 15.929 1.11967 15.8029C0.99229 15.6778 0.920639 15.5075 0.920639 15.3297C0.920639 15.152 0.99229 14.9817 1.11967 14.8566L3.77104 12.231C2.56874 11.4016 1.47475 10.4279 0.514017 9.33222C0.18295 8.9657 0 8.49119 0 7.99943C0 7.50767 0.182957 7.03317 0.514017 6.66665C4.63938 2.08188 8.85164 0.869052 13.0378 3.05474L15.9247 0.195959C16.0955 0.0269816 16.3442 -0.0390634 16.5773 0.0228158C16.8106 0.0846949 16.9927 0.264978 17.0552 0.495991C17.1177 0.726848 17.051 0.973165 16.8803 1.14231L7.09552 10.8316ZM6.67821 9.33225L10.3458 5.70042C9.6581 5.31574 8.83465 5.24971 8.09336 5.5194C7.35208 5.78922 6.76789 6.36769 6.4954 7.10179C6.22307 7.83585 6.28976 8.65128 6.67821 9.33226L6.67821 9.33225Z" fill="#AEB0C2"/>
</svg>
