<svg width="20" height="20" viewBox="0 0 20 20" fill="none" xmlns="http://www.w3.org/2000/svg">
<path d="M16.947 3.00022H11.2725C10.9932 3.00022 10.7253 3.11379 10.5278 3.31598C10.3303 3.51818 10.2194 3.79246 10.2194 4.07839V4.43777H6.30009C6.02071 4.43777 5.75296 4.55146 5.55535 4.75366C5.35787 4.95585 5.24695 5.23014 5.24695 5.51606V5.87544H3.05302C2.77376 5.87544 2.50588 5.98914 2.3084 6.19133C2.11091 6.39353 2 6.66781 2 6.95374V12.0465C2 12.3324 2.11092 12.6067 2.3084 12.8089C2.50587 13.0111 2.77376 13.1248 3.05302 13.1248H5.24695V13.4842C5.24695 13.7701 5.35787 14.0444 5.55535 14.2466C5.75295 14.4488 6.02071 14.5625 6.30009 14.5625H10.2194V14.9218C10.2194 15.2078 10.3303 15.482 10.5278 15.6842C10.7253 15.8864 10.9932 16 11.2725 16H16.947C17.2262 16 17.4941 15.8864 17.6916 15.6842C17.8891 15.482 18 15.2078 18 14.9218V4.07817C18 3.79223 17.8891 3.51796 17.6916 3.31576C17.4941 3.11357 17.2262 3 16.947 3V3.00022ZM3.05313 12.0465V6.95376H5.24706V12.0465H3.05313ZM6.30015 13.4842V5.51614H10.2194V13.4842H6.30015ZM11.2725 14.9219V4.0782H16.947V14.9219H11.2725Z" fill="#AEB0C2"/>
</svg>
