<svg width="9" height="9" viewBox="0 0 9 9" fill="none" xmlns="http://www.w3.org/2000/svg">
<path d="M8.71407 4.09628L2.57212 0.240187C2.46608 0.174167 2.335 0.119279 2.18642 0.0786781C2.03783 0.0380774 1.87467 0.0125647 1.70631 0.00360621C1.53795 -0.00535226 1.36771 0.00242023 1.20537 0.0264769C1.04303 0.0505336 0.891801 0.0903999 0.760369 0.143785C0.628373 0.196821 0.518633 0.262382 0.437459 0.336699C0.356286 0.411017 0.305278 0.492625 0.287367 0.576835C0.269456 0.661045 0.284996 0.746194 0.333093 0.82739C0.38119 0.908586 0.460895 0.984227 0.567629 1.04997L6.05427 4.50117L0.297794 7.95237C0.189601 8.01731 0.108086 8.09229 0.0579171 8.17301C0.0077478 8.25373 -0.0100896 8.33861 0.00542702 8.42279C0.0209436 8.50697 0.0695091 8.58878 0.148342 8.66356C0.227175 8.73833 0.334725 8.80459 0.464835 8.85855C0.697768 8.95205 0.988548 9.00204 1.28719 8.99994C1.47596 9.00009 1.66248 8.97944 1.83348 8.93945C2.00448 8.89946 2.15577 8.84112 2.27658 8.76857L8.70122 4.91248C8.89203 4.79823 8.99762 4.65439 8.99996 4.50553C9.0023 4.35667 8.90126 4.21202 8.71407 4.09628Z" fill="#AEB0C2"/>
</svg>
