<svg width="8" height="8" viewBox="0 0 8 8" fill="none" xmlns="http://www.w3.org/2000/svg">
<path d="M5.67677 3.82322L3.17677 1.32322C3.14181 1.28825 3.09726 1.26445 3.04877 1.2548C3.00027 1.24516 2.95001 1.25011 2.90433 1.26903C2.85864 1.28796 2.8196 1.32 2.79213 1.36111C2.76466 1.40222 2.75 1.45056 2.75 1.5V6.5C2.75 6.54945 2.76466 6.59778 2.79213 6.63889C2.8196 6.68001 2.85865 6.71205 2.90433 6.73097C2.95001 6.74989 3.00027 6.75485 3.04877 6.7452C3.09726 6.73556 3.14181 6.71175 3.17677 6.67679L5.67677 4.17679C5.69999 4.15358 5.71841 4.12602 5.73097 4.09568C5.74354 4.06535 5.75 4.03284 5.75 4C5.75 3.96717 5.74354 3.93466 5.73097 3.90433C5.71841 3.87399 5.69999 3.84643 5.67677 3.82322Z" fill="#AEB0C2"/>
</svg>
