<svg width="16" height="18" viewBox="0 0 16 18" fill="none" xmlns="http://www.w3.org/2000/svg">
<path d="M11.3333 1.5V4.83333M4.66665 1.5V4.83333M1.33331 8.16667H14.6666M1.33331 4.83333C1.33331 4.39131 1.50891 3.96738 1.82147 3.65482C2.13403 3.34226 2.55795 3.16667 2.99998 3.16667H13C13.442 3.16667 13.8659 3.34226 14.1785 3.65482C14.4911 3.96738 14.6666 4.39131 14.6666 4.83333V14.8333C14.6666 15.2754 14.4911 15.6993 14.1785 16.0118C13.8659 16.3244 13.442 16.5 13 16.5H2.99998C2.55795 16.5 2.13403 16.3244 1.82147 16.0118C1.50891 15.6993 1.33331 15.2754 1.33331 14.8333V4.83333Z" stroke="#AEB0C2" stroke-width="1.2" stroke-linecap="round" stroke-linejoin="round"/>
</svg>
