<svg width="16" height="17" viewBox="0 0 16 17" fill="none" xmlns="http://www.w3.org/2000/svg">
<path d="M5.80013 7.63333L10.2001 5.36666M5.80013 9.36666L10.2001 11.6333M2 8.5C2 9.03043 2.21071 9.53914 2.58579 9.91421C2.96086 10.2893 3.46957 10.5 4 10.5C4.53043 10.5 5.03914 10.2893 5.41421 9.91421C5.78929 9.53914 6 9.03043 6 8.5C6 7.96957 5.78929 7.46086 5.41421 7.08579C5.03914 6.71071 4.53043 6.5 4 6.5C3.46957 6.5 2.96086 6.71071 2.58579 7.08579C2.21071 7.46086 2 7.96957 2 8.5ZM10 4.5C10 5.03043 10.2107 5.53914 10.5858 5.91421C10.9609 6.28929 11.4696 6.5 12 6.5C12.5304 6.5 13.0391 6.28929 13.4142 5.91421C13.7893 5.53914 14 5.03043 14 4.5C14 3.96957 13.7893 3.46086 13.4142 3.08579C13.0391 2.71071 12.5304 2.5 12 2.5C11.4696 2.5 10.9609 2.71071 10.5858 3.08579C10.2107 3.46086 10 3.96957 10 4.5ZM10 12.5C10 13.0304 10.2107 13.5391 10.5858 13.9142C10.9609 14.2893 11.4696 14.5 12 14.5C12.5304 14.5 13.0391 14.2893 13.4142 13.9142C13.7893 13.5391 14 13.0304 14 12.5C14 11.9696 13.7893 11.4609 13.4142 11.0858C13.0391 10.7107 12.5304 10.5 12 10.5C11.4696 10.5 10.9609 10.7107 10.5858 11.0858C10.2107 11.4609 10 11.9696 10 12.5Z" stroke="white" stroke-width="1.2" stroke-linecap="round" stroke-linejoin="round"/>
</svg>
