<svg width="16" height="16" viewBox="0 0 16 16" fill="none" xmlns="http://www.w3.org/2000/svg">
<g clip-path="url(#clip0_3292_102147)">
<path fill-rule="evenodd" clip-rule="evenodd" d="M13.8541 2.14689C13.9007 2.19334 13.9376 2.24852 13.9629 2.30926C13.9881 2.37001 14.001 2.43513 14.001 2.50089C14.001 2.56666 13.9881 2.63178 13.9629 2.69253C13.9376 2.75327 13.9007 2.80845 13.8541 2.85489L2.85414 13.8549C2.76026 13.9488 2.63292 14.0015 2.50014 14.0015C2.36737 14.0015 2.24003 13.9488 2.14614 13.8549C2.05226 13.761 1.99951 13.6337 1.99951 13.5009C1.99951 13.3681 2.05226 13.2408 2.14614 13.1469L13.1461 2.14689C13.1926 2.10033 13.2478 2.06339 13.3085 2.03818C13.3693 2.01297 13.4344 2 13.5001 2C13.5659 2 13.631 2.01297 13.6918 2.03818C13.7525 2.06339 13.8077 2.10033 13.8541 2.14689Z" fill="#08135E"/>
<path fill-rule="evenodd" clip-rule="evenodd" d="M2.14598 2.14689C2.09941 2.19334 2.06247 2.24852 2.03727 2.30926C2.01206 2.37001 1.99908 2.43513 1.99908 2.50089C1.99908 2.56666 2.01206 2.63178 2.03727 2.69253C2.06247 2.75327 2.09941 2.80845 2.14598 2.85489L13.146 13.8549C13.2399 13.9488 13.3672 14.0015 13.5 14.0015C13.6328 14.0015 13.7601 13.9488 13.854 13.8549C13.9479 13.761 14.0006 13.6337 14.0006 13.5009C14.0006 13.3681 13.9479 13.2408 13.854 13.1469L2.85398 2.14689C2.80753 2.10033 2.75236 2.06339 2.69161 2.03818C2.63087 2.01297 2.56575 2 2.49998 2C2.43421 2 2.36909 2.01297 2.30834 2.03818C2.2476 2.06339 2.19242 2.10033 2.14598 2.14689Z" fill="#08135E"/>
</g>
<defs>
<clipPath id="clip0_3292_102147">
<rect width="16" height="16" fill="white"/>
</clipPath>
</defs>
</svg>
