<svg width="16" height="17" viewBox="0 0 16 17" fill="none" xmlns="http://www.w3.org/2000/svg">
<path d="M4 14.5V13.1667C4 12.4594 4.28095 11.7811 4.78105 11.281C5.28115 10.781 5.95942 10.5 6.66667 10.5H9.33333C10.0406 10.5 10.7189 10.781 11.219 11.281C11.719 11.7811 12 12.4594 12 13.1667V14.5M5.33333 5.16667C5.33333 5.87391 5.61428 6.55219 6.11438 7.05229C6.61448 7.55238 7.29276 7.83333 8 7.83333C8.70724 7.83333 9.38552 7.55238 9.88562 7.05229C10.3857 6.55219 10.6667 5.87391 10.6667 5.16667C10.6667 4.45942 10.3857 3.78115 9.88562 3.28105C9.38552 2.78095 8.70724 2.5 8 2.5C7.29276 2.5 6.61448 2.78095 6.11438 3.28105C5.61428 3.78115 5.33333 4.45942 5.33333 5.16667Z" stroke="white" stroke-width="1.2" stroke-linecap="round" stroke-linejoin="round"/>
</svg>
