<svg width="5" height="12" viewBox="0 0 5 12" fill="none" xmlns="http://www.w3.org/2000/svg">
<path d="M4.6844 2.19055L2.9344 0.440554C2.93248 0.438658 2.9304 0.437054 2.92845 0.435187C2.92004 0.427093 2.91149 0.419138 2.90247 0.411715C2.89686 0.407121 2.89098 0.403089 2.88522 0.398817C2.8795 0.394571 2.87397 0.390166 2.86807 0.386213C2.8615 0.381807 2.85472 0.378016 2.84799 0.37401C2.84244 0.370726 2.83704 0.367229 2.83136 0.364184C2.82465 0.360579 2.81776 0.357535 2.8109 0.35433C2.80479 0.351446 2.79875 0.348376 2.79248 0.345785C2.78591 0.343062 2.77921 0.340872 2.77253 0.338495C2.76575 0.336039 2.75902 0.333422 2.75208 0.331312C2.7454 0.329309 2.73865 0.327812 2.73189 0.326132C2.72479 0.324343 2.71777 0.32234 2.71053 0.320925C2.70284 0.319376 2.69504 0.318468 2.68727 0.317373C2.68092 0.316465 2.67464 0.315237 2.6682 0.314623C2.63949 0.311792 2.61056 0.311792 2.58185 0.314623C2.57541 0.315237 2.56914 0.316465 2.56278 0.317373C2.55501 0.318467 2.54721 0.319376 2.53952 0.320925C2.53229 0.32234 2.52526 0.324343 2.51816 0.326132C2.5114 0.327814 2.50465 0.329309 2.49797 0.331312C2.49103 0.333422 2.4843 0.336039 2.47752 0.338495C2.47085 0.340872 2.46414 0.343062 2.45757 0.345785C2.4513 0.348376 2.44526 0.351446 2.43915 0.35433C2.43229 0.357535 2.4254 0.360579 2.4187 0.364184C2.41301 0.367227 2.40761 0.370726 2.40206 0.37401C2.39533 0.378016 2.38855 0.381807 2.38198 0.386213C2.37608 0.390166 2.37055 0.394571 2.36484 0.398817C2.35907 0.403089 2.35319 0.407122 2.34759 0.411715C2.33856 0.419138 2.33002 0.427096 2.3216 0.435187C2.31966 0.437056 2.31757 0.438658 2.31565 0.440554L0.565649 2.19055C0.52502 2.23118 0.492792 2.27941 0.470804 2.3325C0.448816 2.38558 0.4375 2.44248 0.4375 2.49993C0.4375 2.55739 0.448816 2.61428 0.470804 2.66737C0.492792 2.72045 0.52502 2.76868 0.565649 2.80931C0.647701 2.89137 0.758989 2.93746 0.875029 2.93746C0.932486 2.93746 0.98938 2.92615 1.04246 2.90416C1.09555 2.88217 1.14378 2.84994 1.18441 2.80931L2.18752 1.80617V11.2499C2.18752 11.366 2.23362 11.4772 2.31566 11.5593C2.39771 11.6413 2.50899 11.6874 2.62502 11.6874C2.74106 11.6874 2.85234 11.6413 2.93438 11.5593C3.01643 11.4772 3.06252 11.366 3.06252 11.2499V1.80617L4.06564 2.80932C4.10627 2.84994 4.1545 2.88217 4.20759 2.90416C4.26067 2.92615 4.31757 2.93746 4.37502 2.93746C4.43248 2.93746 4.48938 2.92615 4.54246 2.90416C4.59554 2.88217 4.64377 2.84994 4.6844 2.80932C4.72503 2.76869 4.75726 2.72045 4.77925 2.66737C4.80124 2.61429 4.81255 2.55739 4.81255 2.49994C4.81255 2.44248 4.80124 2.38558 4.77925 2.3325C4.75726 2.27942 4.72503 2.23118 4.6844 2.19056V2.19055Z" fill="#08135E"/>
</svg>
