<svg width="16" height="17" viewBox="0 0 16 17" fill="none" xmlns="http://www.w3.org/2000/svg">
<path d="M5.33333 14.5V13.8333C5.33333 13.4797 5.47381 13.1406 5.72386 12.8905C5.97391 12.6405 6.31304 12.5 6.66667 12.5H9.33333C9.68696 12.5 10.0261 12.6405 10.2761 12.8905C10.5262 13.1406 10.6667 13.4797 10.6667 13.8333V14.5M11.3333 7.16667H12.6667C13.0203 7.16667 13.3594 7.30714 13.6095 7.55719C13.8595 7.80724 14 8.14638 14 8.5V9.16667M2 9.16667V8.5C2 8.14638 2.14048 7.80724 2.39052 7.55719C2.64057 7.30714 2.97971 7.16667 3.33333 7.16667H4.66667M6.66667 9.16667C6.66667 9.52029 6.80714 9.85943 7.05719 10.1095C7.30724 10.3595 7.64638 10.5 8 10.5C8.35362 10.5 8.69276 10.3595 8.94281 10.1095C9.19286 9.85943 9.33333 9.52029 9.33333 9.16667C9.33333 8.81304 9.19286 8.47391 8.94281 8.22386C8.69276 7.97381 8.35362 7.83333 8 7.83333C7.64638 7.83333 7.30724 7.97381 7.05719 8.22386C6.80714 8.47391 6.66667 8.81304 6.66667 9.16667ZM10 3.83333C10 4.18696 10.1405 4.52609 10.3905 4.77614C10.6406 5.02619 10.9797 5.16667 11.3333 5.16667C11.687 5.16667 12.0261 5.02619 12.2761 4.77614C12.5262 4.52609 12.6667 4.18696 12.6667 3.83333C12.6667 3.47971 12.5262 3.14057 12.2761 2.89052C12.0261 2.64048 11.687 2.5 11.3333 2.5C10.9797 2.5 10.6406 2.64048 10.3905 2.89052C10.1405 3.14057 10 3.47971 10 3.83333ZM3.33333 3.83333C3.33333 4.18696 3.47381 4.52609 3.72386 4.77614C3.97391 5.02619 4.31304 5.16667 4.66667 5.16667C5.02029 5.16667 5.35943 5.02619 5.60948 4.77614C5.85952 4.52609 6 4.18696 6 3.83333C6 3.47971 5.85952 3.14057 5.60948 2.89052C5.35943 2.64048 5.02029 2.5 4.66667 2.5C4.31304 2.5 3.97391 2.64048 3.72386 2.89052C3.47381 3.14057 3.33333 3.47971 3.33333 3.83333Z" stroke="white" stroke-width="1.2" stroke-linecap="round" stroke-linejoin="round"/>
</svg>
