<svg width="5" height="12" viewBox="0 0 5 12" fill="none" xmlns="http://www.w3.org/2000/svg">
<path d="M3.81565 9.19062L2.81253 10.1938V0.75C2.81253 0.633968 2.76644 0.522688 2.68439 0.440641C2.60234 0.358594 2.49106 0.3125 2.37503 0.3125C2.259 0.3125 2.14772 0.358594 2.06567 0.440641C1.98362 0.522688 1.93753 0.633968 1.93753 0.75V10.1938L0.934409 9.19062C0.852356 9.10857 0.741069 9.06247 0.625029 9.06247C0.508989 9.06247 0.397702 9.10857 0.315649 9.19062C0.233597 9.27267 0.1875 9.38396 0.1875 9.5C0.1875 9.61604 0.233597 9.72733 0.315649 9.80938L2.06565 11.5594C2.06773 11.5614 2.07 11.5632 2.07211 11.5652C2.08036 11.5731 2.08872 11.581 2.09759 11.5882C2.10322 11.5928 2.10912 11.5969 2.11494 11.6012C2.12058 11.6054 2.1261 11.6098 2.13195 11.6137C2.13857 11.6182 2.14544 11.622 2.15224 11.626C2.15772 11.6293 2.16303 11.6327 2.16867 11.6357C2.17545 11.6394 2.18242 11.6425 2.18936 11.6457C2.1954 11.6485 2.20132 11.6516 2.20752 11.6541C2.21417 11.6569 2.22098 11.6591 2.22776 11.6615C2.23446 11.6639 2.24108 11.6665 2.24792 11.6686C2.25468 11.6707 2.26154 11.6721 2.26837 11.6739C2.2754 11.6756 2.28234 11.6776 2.2895 11.679C2.29727 11.6806 2.30512 11.6815 2.31294 11.6826C2.31927 11.6835 2.32546 11.6847 2.33185 11.6853C2.34619 11.6867 2.3606 11.6875 2.37502 11.6875C2.38944 11.6875 2.40386 11.6867 2.4182 11.6853C2.42458 11.6847 2.43078 11.6835 2.43711 11.6826C2.44493 11.6815 2.45278 11.6806 2.46055 11.679C2.46771 11.6776 2.47465 11.6756 2.48168 11.6739C2.48851 11.6721 2.49537 11.6707 2.50213 11.6686C2.50897 11.6665 2.51559 11.6639 2.52229 11.6615C2.52907 11.6591 2.53588 11.6569 2.54253 11.6541C2.54873 11.6516 2.55465 11.6485 2.56069 11.6457C2.56763 11.6425 2.5746 11.6394 2.58138 11.6357C2.58701 11.6327 2.59233 11.6293 2.5978 11.626C2.60461 11.622 2.61148 11.6182 2.6181 11.6137C2.62395 11.6098 2.62947 11.6054 2.63511 11.6012C2.64093 11.5969 2.64683 11.5928 2.65246 11.5882C2.66133 11.581 2.66969 11.5731 2.67794 11.5652C2.68005 11.5632 2.68232 11.5614 2.6844 11.5594L4.4344 9.80938C4.51645 9.72733 4.56255 9.61604 4.56255 9.5C4.56255 9.38396 4.51645 9.27267 4.4344 9.19062C4.35235 9.10857 4.24106 9.06247 4.12502 9.06247C4.00898 9.06247 3.89769 9.10857 3.81564 9.19062H3.81565Z" fill="#08135E"/>
</svg>
