<svg width="50" height="50" viewBox="0 0 50 50" fill="none" xmlns="http://www.w3.org/2000/svg">
<path d="M25.0003 0.625C20.1794 0.625 15.4668 2.05457 11.4583 4.73293C7.44987 7.41129 4.32566 11.2181 2.48078 15.6721C0.635889 20.126 0.153183 25.027 1.0937 29.7553C2.03421 34.4836 4.35571 38.8268 7.76461 42.2357C11.1735 45.6446 15.5167 47.9661 20.245 48.9066C24.9733 49.8472 29.8743 49.3644 34.3282 47.5196C38.7822 45.6747 42.5891 42.5505 45.2674 38.542C47.9458 34.5336 49.3753 29.8209 49.3753 25C49.3679 18.5376 46.7974 12.3421 42.2278 7.77252C37.6582 3.20294 31.4627 0.632469 25.0003 0.625ZM25.0001 11.875C25.5564 11.875 26.1001 12.0399 26.5626 12.349C27.0252 12.658 27.3856 13.0973 27.5985 13.6112C27.8114 14.1251 27.8671 14.6906 27.7586 15.2362C27.65 15.7818 27.3822 16.2829 26.9888 16.6762C26.5955 17.0696 26.0944 17.3374 25.5488 17.446C25.0032 17.5545 24.4377 17.4988 23.9238 17.2859C23.4099 17.073 22.9706 16.7126 22.6616 16.25C22.3526 15.7875 22.1876 15.2438 22.1876 14.6875C22.1876 14.3182 22.2604 13.9524 22.4017 13.6112C22.543 13.27 22.7502 12.9599 23.0114 12.6988C23.2725 12.4376 23.5826 12.2304 23.9238 12.0891C24.265 11.9477 24.6308 11.875 25.0001 11.875H25.0001ZM26.8753 38.125H25.0003C24.7541 38.1251 24.5102 38.0767 24.2826 37.9826C24.0551 37.8884 23.8483 37.7503 23.6742 37.5761C23.5001 37.402 23.362 37.1952 23.2678 36.9677C23.1736 36.7402 23.1252 36.4963 23.1253 36.25V25C22.6281 25 22.1511 24.8025 21.7995 24.4508C21.4479 24.0992 21.2503 23.6223 21.2503 23.125C21.2503 22.6277 21.4479 22.1508 21.7995 21.7992C22.1511 21.4475 22.6281 21.25 23.1253 21.25H25.0003C25.2466 21.2499 25.4905 21.2983 25.718 21.3924C25.9456 21.4866 26.1523 21.6247 26.3265 21.7989C26.5006 21.973 26.6387 22.1798 26.7329 22.4073C26.8271 22.6348 26.8755 22.8787 26.8753 23.125V34.375C27.3726 34.375 27.8495 34.5725 28.2012 34.9242C28.5528 35.2758 28.7503 35.7527 28.7503 36.25C28.7503 36.7473 28.5528 37.2242 28.2012 37.5758C27.8495 37.9275 27.3726 38.125 26.8753 38.125Z" fill="#AEB0C2"/>
</svg>
