<svg width="19" height="18" viewBox="0 0 19 18" fill="none" xmlns="http://www.w3.org/2000/svg">
<path d="M4.83337 15.75V14.25C4.83337 13.4544 5.14944 12.6913 5.71205 12.1287C6.27466 11.5661 7.03772 11.25 7.83337 11.25H10.8334C11.629 11.25 12.3921 11.5661 12.9547 12.1287C13.5173 12.6913 13.8334 13.4544 13.8334 14.25V15.75M6.33337 5.25C6.33337 6.04565 6.64944 6.80871 7.21205 7.37132C7.77466 7.93393 8.53772 8.25 9.33337 8.25C10.129 8.25 10.8921 7.93393 11.4547 7.37132C12.0173 6.80871 12.3334 6.04565 12.3334 5.25C12.3334 4.45435 12.0173 3.69129 11.4547 3.12868C10.8921 2.56607 10.129 2.25 9.33337 2.25C8.53772 2.25 7.77466 2.56607 7.21205 3.12868C6.64944 3.69129 6.33337 4.45435 6.33337 5.25Z" stroke="#08135E" stroke-width="1.2" stroke-linecap="round" stroke-linejoin="round"/>
</svg>
