<svg width="19" height="18" viewBox="0 0 19 18" fill="none" xmlns="http://www.w3.org/2000/svg">
<path d="M7.83337 9C7.83337 9.39782 7.99141 9.77936 8.27271 10.0607C8.55402 10.342 8.93555 10.5 9.33337 10.5C9.7312 10.5 10.1127 10.342 10.394 10.0607C10.6753 9.77936 10.8334 9.39782 10.8334 9C10.8334 8.60218 10.6753 8.22064 10.394 7.93934C10.1127 7.65804 9.7312 7.5 9.33337 7.5C8.93555 7.5 8.55402 7.65804 8.27271 7.93934C7.99141 8.22064 7.83337 8.60218 7.83337 9Z" stroke="#08135E" stroke-width="1.2" stroke-linecap="round" stroke-linejoin="round"/>
<path d="M16.0834 9C14.2834 12 12.0334 13.5 9.33337 13.5C6.63337 13.5 4.38337 12 2.58337 9C4.38337 6 6.63337 4.5 9.33337 4.5C12.0334 4.5 14.2834 6 16.0834 9Z" stroke="#08135E" stroke-width="1.2" stroke-linecap="round" stroke-linejoin="round"/>
</svg>
