<svg width="10" height="12" viewBox="0 0 10 12" fill="none" xmlns="http://www.w3.org/2000/svg">
<path d="M4.2469 1.87805L2.4969 0.128054C2.49498 0.126158 2.4929 0.124554 2.49095 0.122687C2.48254 0.114593 2.47399 0.106638 2.46497 0.0992146C2.45936 0.0946209 2.45348 0.0905893 2.44772 0.0863172C2.442 0.0820712 2.43647 0.0776656 2.43057 0.0737133C2.424 0.0693071 2.41722 0.0655157 2.41049 0.0615104C2.40494 0.0582259 2.39954 0.0547291 2.39386 0.0516835C2.38715 0.0480785 2.38027 0.0450346 2.3734 0.0418299C2.36729 0.0389463 2.36125 0.0358756 2.35498 0.033285C2.34841 0.0305616 2.34171 0.028372 2.33503 0.0259952C2.32825 0.0235387 2.32152 0.0209218 2.31458 0.018812C2.3079 0.0168093 2.30115 0.015312 2.29439 0.013632C2.28729 0.0118426 2.28027 0.00983995 2.27303 0.00842464C2.26534 0.00687589 2.25754 0.0059681 2.24977 0.00487326C2.24342 0.00396545 2.23714 0.00273711 2.2307 0.00212297C2.20199 -0.000707656 2.17306 -0.000707656 2.14435 0.00212297C2.13791 0.00273711 2.13164 0.00396545 2.12528 0.00487326C2.11751 0.00596701 2.10971 0.00687589 2.10202 0.00842464C2.09479 0.00983995 2.08776 0.0118426 2.08066 0.013632C2.0739 0.0153142 2.06715 0.0168093 2.06047 0.018812C2.05353 0.0209218 2.0468 0.0235387 2.04002 0.0259952C2.03335 0.028372 2.02664 0.0305616 2.02007 0.033285C2.0138 0.0358756 2.00776 0.0389463 2.00165 0.0418299C1.99479 0.0450346 1.9879 0.0480785 1.9812 0.0516835C1.97551 0.0547274 1.97011 0.0582259 1.96456 0.0615104C1.95783 0.0655157 1.95105 0.0693071 1.94448 0.0737133C1.93858 0.0776656 1.93305 0.0820712 1.92734 0.0863172C1.92157 0.0905893 1.91569 0.094622 1.91009 0.0992146C1.90106 0.106638 1.89252 0.114596 1.8841 0.122687C1.88216 0.124556 1.88007 0.126158 1.87815 0.128054L0.128149 1.87805C0.0875205 1.91868 0.0552922 1.96691 0.0333043 2.02C0.0113164 2.07308 0 2.12998 0 2.18743C0 2.24489 0.0113164 2.30178 0.0333043 2.35487C0.0552922 2.40795 0.0875205 2.45618 0.128149 2.49681C0.210201 2.57887 0.321489 2.62496 0.437529 2.62496C0.494986 2.62496 0.55188 2.61365 0.604964 2.59166C0.658047 2.56967 0.706281 2.53744 0.746909 2.49681L1.75002 1.49367V10.9374C1.75002 11.0535 1.79612 11.1647 1.87816 11.2468C1.96021 11.3288 2.07149 11.3749 2.18752 11.3749C2.30356 11.3749 2.41484 11.3288 2.49688 11.2468C2.57893 11.1647 2.62502 11.0535 2.62502 10.9374V1.49367L3.62814 2.49682C3.66877 2.53744 3.717 2.56967 3.77009 2.59166C3.82317 2.61365 3.88007 2.62496 3.93752 2.62496C3.99498 2.62496 4.05188 2.61365 4.10496 2.59166C4.15804 2.56967 4.20627 2.53744 4.2469 2.49682C4.28753 2.45619 4.31976 2.40795 4.34175 2.35487C4.36374 2.30179 4.37505 2.24489 4.37505 2.18744C4.37505 2.12998 4.36374 2.07308 4.34175 2.02C4.31976 1.96692 4.28753 1.91868 4.2469 1.87806V1.87805Z" fill="#08135E"/>
<path d="M8.62815 8.87812L7.62503 9.88127V0.4375C7.62503 0.321468 7.57894 0.210188 7.49689 0.128141C7.41484 0.0460936 7.30356 0 7.18753 0C7.0715 0 6.96022 0.0460936 6.87817 0.128141C6.79612 0.210188 6.75003 0.321468 6.75003 0.4375V9.88127L5.74691 8.87812C5.66486 8.79607 5.55357 8.74997 5.43753 8.74997C5.32149 8.74997 5.2102 8.79607 5.12815 8.87812C5.0461 8.96017 5 9.07146 5 9.1875C5 9.30354 5.0461 9.41483 5.12815 9.49688L6.87815 11.2469C6.88023 11.2489 6.8825 11.2507 6.88461 11.2527C6.89286 11.2606 6.90122 11.2685 6.91009 11.2757C6.91572 11.2803 6.92162 11.2844 6.92744 11.2887C6.93308 11.2929 6.9386 11.2973 6.94445 11.3012C6.95107 11.3057 6.95794 11.3095 6.96474 11.3135C6.97022 11.3168 6.97553 11.3202 6.98117 11.3232C6.98795 11.3269 6.99492 11.33 7.00186 11.3332C7.0079 11.336 7.01382 11.3391 7.02002 11.3416C7.02667 11.3444 7.03348 11.3466 7.04026 11.349C7.04696 11.3515 7.05358 11.354 7.06042 11.3561C7.06718 11.3582 7.07404 11.3596 7.08087 11.3614C7.0879 11.3631 7.09484 11.3651 7.102 11.3665C7.10977 11.3681 7.11762 11.369 7.12544 11.3701C7.13177 11.371 7.13796 11.3722 7.14435 11.3728C7.15869 11.3742 7.1731 11.375 7.18752 11.375C7.20194 11.375 7.21636 11.3742 7.2307 11.3728C7.23708 11.3722 7.24328 11.371 7.24961 11.3701C7.25743 11.369 7.26528 11.3681 7.27305 11.3665C7.28021 11.3651 7.28715 11.3631 7.29418 11.3614C7.30101 11.3596 7.30787 11.3582 7.31463 11.3561C7.32146 11.354 7.32809 11.3514 7.33479 11.349C7.34157 11.3466 7.34838 11.3444 7.35503 11.3416C7.36123 11.3391 7.36715 11.336 7.37319 11.3332C7.38013 11.33 7.3871 11.3269 7.39388 11.3232C7.39951 11.3202 7.40483 11.3168 7.4103 11.3135C7.41711 11.3095 7.42398 11.3057 7.4306 11.3012C7.43645 11.2973 7.44197 11.2929 7.44761 11.2887C7.45343 11.2844 7.45933 11.2803 7.46496 11.2757C7.47383 11.2685 7.48219 11.2606 7.49044 11.2527C7.49255 11.2507 7.49482 11.2489 7.4969 11.2469L9.2469 9.49688C9.32895 9.41483 9.37505 9.30354 9.37505 9.1875C9.37505 9.07146 9.32895 8.96017 9.2469 8.87812C9.16485 8.79607 9.05356 8.74997 8.93752 8.74997C8.82148 8.74997 8.71019 8.79607 8.62814 8.87812H8.62815Z" fill="#08135E"/>
</svg>
