<svg width="26" height="26" viewBox="0 0 26 26" fill="none" xmlns="http://www.w3.org/2000/svg">
<g clip-path="url(#clip0_1789_64146)">
<path fill-rule="evenodd" clip-rule="evenodd" d="M22.513 3.48773C22.5887 3.5632 22.6487 3.65286 22.6897 3.75157C22.7307 3.85028 22.7517 3.9561 22.7517 4.06298C22.7517 4.16985 22.7307 4.27567 22.6897 4.37438C22.6487 4.47309 22.5887 4.56275 22.513 4.63823L4.63804 22.5132C4.48548 22.6658 4.27855 22.7515 4.06279 22.7515C3.84703 22.7515 3.64011 22.6658 3.48754 22.5132C3.33498 22.3607 3.24927 22.1537 3.24927 21.938C3.24927 21.7222 3.33498 21.5153 3.48754 21.3627L21.3625 3.48773C21.438 3.41206 21.5277 3.35203 21.6264 3.31107C21.7251 3.27011 21.8309 3.24902 21.9378 3.24902C22.0447 3.24902 22.1505 3.27011 22.2492 3.31107C22.3479 3.35203 22.4376 3.41206 22.513 3.48773Z" fill="#08135E"/>
<path fill-rule="evenodd" clip-rule="evenodd" d="M3.48724 3.48773C3.41157 3.5632 3.35154 3.65286 3.31058 3.75157C3.26962 3.85028 3.24854 3.9561 3.24854 4.06298C3.24854 4.16985 3.26962 4.27567 3.31058 4.37438C3.35154 4.47309 3.41157 4.56275 3.48724 4.63823L21.3622 22.5132C21.5148 22.6658 21.7217 22.7515 21.9375 22.7515C22.1532 22.7515 22.3602 22.6658 22.5127 22.5132C22.6653 22.3607 22.751 22.1537 22.751 21.938C22.751 21.7222 22.6653 21.5153 22.5127 21.3627L4.63774 3.48773C4.56226 3.41206 4.4726 3.35203 4.37389 3.31107C4.27518 3.27011 4.16936 3.24902 4.06249 3.24902C3.95562 3.24902 3.84979 3.27011 3.75108 3.31107C3.65237 3.35203 3.56271 3.41206 3.48724 3.48773Z" fill="#08135E"/>
</g>
<defs>
<clipPath id="clip0_1789_64146">
<rect width="26" height="26" fill="white"/>
</clipPath>
</defs>
</svg>
