<svg width="10" height="10" viewBox="0 0 10 10" fill="none" xmlns="http://www.w3.org/2000/svg">
<g clip-path="url(#clip0_7742_87475)">
<path fill-rule="evenodd" clip-rule="evenodd" d="M8.65915 1.34181C8.68825 1.37084 8.71134 1.40532 8.72709 1.44329C8.74284 1.48125 8.75095 1.52195 8.75095 1.56306C8.75095 1.60416 8.74284 1.64486 8.72709 1.68283C8.71134 1.7208 8.68825 1.75528 8.65915 1.78431L1.78414 8.65931C1.72547 8.71799 1.64588 8.75095 1.56289 8.75095C1.47991 8.75095 1.40032 8.71799 1.34164 8.65931C1.28297 8.60063 1.25 8.52104 1.25 8.43806C1.25 8.35507 1.28297 8.27549 1.34164 8.21681L8.21665 1.34181C8.24567 1.31271 8.28016 1.28962 8.31812 1.27386C8.35609 1.25811 8.39679 1.25 8.4379 1.25C8.479 1.25 8.5197 1.25811 8.55767 1.27386C8.59563 1.28962 8.63012 1.31271 8.65915 1.34181Z" fill="#817D9D"/>
<path fill-rule="evenodd" clip-rule="evenodd" d="M1.34181 1.34181C1.31271 1.37084 1.28962 1.40532 1.27386 1.44329C1.25811 1.48125 1.25 1.52195 1.25 1.56306C1.25 1.60416 1.25811 1.64486 1.27386 1.68283C1.28962 1.7208 1.31271 1.75528 1.34181 1.78431L8.21681 8.65931C8.27549 8.71799 8.35507 8.75095 8.43806 8.75095C8.52104 8.75095 8.60063 8.71799 8.65931 8.65931C8.71799 8.60063 8.75095 8.52104 8.75095 8.43806C8.75095 8.35507 8.71799 8.27549 8.65931 8.21681L1.78431 1.34181C1.75528 1.31271 1.7208 1.28962 1.68283 1.27386C1.64486 1.25811 1.60416 1.25 1.56306 1.25C1.52195 1.25 1.48125 1.25811 1.44329 1.27386C1.40532 1.28962 1.37084 1.31271 1.34181 1.34181Z" fill="#817D9D"/>
</g>
<defs>
<clipPath id="clip0_7742_87475">
<rect width="10" height="10" fill="white"/>
</clipPath>
</defs>
</svg>
