<svg width="15" height="15" viewBox="0 0 15 15" fill="none" xmlns="http://www.w3.org/2000/svg">
<path fill-rule="evenodd" clip-rule="evenodd" d="M14.4518 0.54846C14.5071 0.603614 14.5509 0.669135 14.5809 0.74127C14.6108 0.813405 14.6262 0.890736 14.6262 0.968835C14.6262 1.04693 14.6108 1.12427 14.5809 1.1964C14.5509 1.26853 14.5071 1.33406 14.4518 1.38921L1.38926 14.4517C1.27777 14.5632 1.12656 14.6258 0.96889 14.6258C0.811218 14.6258 0.660005 14.5632 0.548515 14.4517C0.437024 14.3402 0.37439 14.189 0.37439 14.0313C0.37439 13.8737 0.437024 13.7225 0.548515 13.611L13.611 0.54846C13.6662 0.493166 13.7317 0.449296 13.8038 0.419364C13.876 0.389431 13.9533 0.374023 14.0314 0.374023C14.1095 0.374023 14.1868 0.389431 14.259 0.419364C14.3311 0.449296 14.3966 0.493166 14.4518 0.54846Z" fill="#AEB0C2"/>
<path fill-rule="evenodd" clip-rule="evenodd" d="M0.548399 0.54846C0.493105 0.603614 0.449235 0.669135 0.419303 0.74127C0.38937 0.813405 0.373962 0.890736 0.373962 0.968835C0.373962 1.04693 0.38937 1.12427 0.419303 1.1964C0.449235 1.26853 0.493105 1.33406 0.548399 1.38921L13.6109 14.4517C13.7224 14.5632 13.8736 14.6258 14.0313 14.6258C14.1889 14.6258 14.3402 14.5632 14.4517 14.4517C14.5631 14.3402 14.6258 14.189 14.6258 14.0313C14.6258 13.8737 14.5631 13.7225 14.4517 13.611L1.38915 0.54846C1.33399 0.493166 1.26847 0.449296 1.19634 0.419364C1.1242 0.389431 1.04687 0.374023 0.968774 0.374023C0.890675 0.374023 0.813344 0.389431 0.741209 0.419364C0.669074 0.449296 0.603553 0.493166 0.548399 0.54846V0.54846Z" fill="#AEB0C2"/>
</svg>
