<svg width="15" height="14" viewBox="0 0 15 14" fill="none" xmlns="http://www.w3.org/2000/svg">
<path d="M0.5 1.03049C0.5 0.757186 0.608569 0.495077 0.801823 0.301823C0.995077 0.108569 1.25719 0 1.53049 0H6.25631C6.52959 5.83642e-05 6.79166 0.108666 6.98487 0.301933L14.1983 7.51535C14.3915 7.7086 14.5 7.97066 14.5 8.24391C14.5 8.51716 14.3915 8.77922 14.1983 8.97247L9.47247 13.6983C9.27922 13.8915 9.01716 14 8.74391 14C8.47066 14 8.2086 13.8915 8.01535 13.6983L0.801933 6.48487C0.608666 6.29166 0.500058 6.02959 0.5 5.75631V1.03049ZM4.10671 5.15244C4.51666 5.15244 4.90983 4.98959 5.19971 4.69971C5.48959 4.40983 5.65244 4.01666 5.65244 3.60671C5.65244 3.19676 5.48959 2.80359 5.19971 2.51371C4.90983 2.22383 4.51666 2.06098 4.10671 2.06098C3.69676 2.06098 3.30359 2.22383 3.01371 2.51371C2.72383 2.80359 2.56098 3.19676 2.56098 3.60671C2.56098 4.01666 2.72383 4.40983 3.01371 4.69971C3.30359 4.98959 3.69676 5.15244 4.10671 5.15244V5.15244Z" fill="#AEB0C2"/>
</svg>